<svg width="164" height="30" viewBox="0 0 164 30" fill="none" xmlns="http://www.w3.org/2000/svg">
<path d="M2.03248 28.5641C1.33517 28.5641 0.845828 28.377 0.564457 27.9945C0.279009 27.6039 0.225996 27.0749 0.401343 26.3994C0.552223 25.8705 0.670482 25.3415 0.760194 24.8207C0.858062 24.2917 0.906996 23.6122 0.906996 22.7861V13.6553C0.906996 13.1467 0.849906 12.6869 0.743882 12.2718C0.646014 11.8609 0.531834 11.5231 0.401343 11.2627C0.225996 10.807 0.254541 10.3472 0.4829 9.87925C0.71126 9.41538 1.08642 9.13055 1.60838 9.03289L4.60968 8.44696C5.49049 8.27606 6.11848 8.34523 6.5018 8.65854C6.89327 8.96372 7.089 9.44793 7.089 10.1071V10.6117C7.089 10.8395 7.16241 11.0023 7.31736 11.1C7.46824 11.1895 7.64767 11.0918 7.85564 10.807C8.36537 10.1356 8.99743 9.56593 9.74776 9.098C10.4981 8.62192 11.3993 8.38185 12.4554 8.38185C14.5107 8.38185 15.9869 9.19158 16.8921 10.807C16.9655 10.9372 17.0756 11.0145 17.2184 11.0348C17.357 11.0593 17.4957 10.9819 17.6262 10.807C18.1889 10.0908 18.9311 9.51304 19.8445 9.06545C20.7579 8.60972 21.8916 8.38185 23.2536 8.38185C24.9581 8.38185 26.2916 8.98406 27.2499 10.1885C28.2163 11.3929 28.7016 12.9636 28.7016 14.8923V22.7861C28.7016 23.6122 28.7423 24.2917 28.8321 24.8207C28.9299 25.3415 29.0523 25.8705 29.2072 26.3994C29.4111 27.0749 29.3622 27.6039 29.0604 27.9945C28.7668 28.377 28.2775 28.5641 27.5924 28.5641H23.645C22.9477 28.5641 22.4584 28.377 22.177 27.9945C21.8916 27.6039 21.8426 27.0749 22.0302 26.3994C22.1811 25.8705 22.2994 25.3415 22.3891 24.8207C22.4747 24.2917 22.5196 23.6122 22.5196 22.7861V16.0479C22.5196 15.1486 22.3157 14.4365 21.916 13.9157C21.5246 13.3867 20.9537 13.1182 20.2033 13.1182C19.4612 13.1182 18.8903 13.3908 18.4907 13.932C18.0869 14.465 17.8871 15.169 17.8871 16.0479V22.7861C17.8871 23.6122 17.9279 24.2917 18.0176 24.8207C18.1155 25.3415 18.2378 25.8705 18.3928 26.3994C18.5967 27.0749 18.5559 27.6039 18.2623 27.9945C17.9687 28.377 17.4712 28.5641 16.778 28.5641H12.8306C12.1333 28.5641 11.644 28.377 11.3626 27.9945C11.0771 27.6039 11.0282 27.0749 11.2158 26.3994C11.3667 25.8705 11.4849 25.3415 11.5746 24.8207C11.6725 24.2917 11.7214 23.6122 11.7214 22.7861V16.0479C11.7214 15.1486 11.5175 14.4365 11.1179 13.9157C10.7142 13.3867 10.1433 13.1182 9.40522 13.1182C8.6549 13.1182 8.07584 13.3867 7.67621 13.9157C7.28474 14.4365 7.089 15.1486 7.089 16.0479V22.7861C7.089 23.6122 7.12978 24.2917 7.2195 24.8207C7.30513 25.3415 7.42339 25.8705 7.57835 26.3994C7.78224 27.0749 7.74146 27.6039 7.44786 27.9945C7.15425 28.377 6.65675 28.5641 5.96352 28.5641H2.03248Z" fill="black"/>
<path d="M40.8145 29.1013C38.8327 29.1013 37.0955 28.6821 35.5949 27.848C34.1024 27.0139 32.9443 25.8135 32.1206 24.251C31.305 22.6885 30.8972 20.8412 30.8972 18.7009C30.8972 16.7803 31.3132 15.0388 32.1532 13.4763C32.9891 11.9056 34.1595 10.6605 35.6601 9.74904C37.1689 8.83758 38.9428 8.38185 40.9776 8.38185C42.9554 8.38185 44.6069 8.80503 45.9363 9.65138C47.2616 10.4977 48.2566 11.6167 48.9213 13.0042C49.5941 14.3958 49.9326 15.9095 49.9326 17.5453C49.9326 18.3713 49.7613 18.9531 49.4269 19.2868C49.0885 19.6123 48.6114 19.7751 47.9915 19.7751H37.8785C37.4625 19.7751 37.2953 19.9989 37.3728 20.4424C37.5767 21.4434 38.0946 22.3101 38.9224 23.0466C39.7461 23.7749 40.7167 24.1371 41.8258 24.1371C42.727 24.1371 43.5385 23.9865 44.2562 23.6813C44.9739 23.368 45.6427 22.9652 46.2625 22.4769C46.8497 22.013 47.3962 21.834 47.91 21.9398C48.4319 22.0375 48.7989 22.3101 49.0191 22.7536C49.2353 23.189 49.2026 23.6895 48.9213 24.251C48.2036 25.6629 47.1841 26.8226 45.8711 27.7341C44.5539 28.6455 42.8698 29.1013 40.8145 29.1013ZM37.9927 16.0804H43.1307C43.6731 16.0804 43.9055 15.7997 43.8321 15.2341C43.7547 14.5423 43.4447 13.9889 42.9024 13.5739C42.356 13.1629 41.6709 12.9554 40.8471 12.9554C39.2813 12.9554 38.1762 13.7814 37.5359 15.4294C37.3484 15.8648 37.5033 16.0804 37.9927 16.0804Z" fill="black"/>
<path d="M61.54 29.1013C59.5581 29.1013 57.821 28.6821 56.3203 27.848C54.8278 27.0139 53.6697 25.8135 52.846 24.251C52.0304 22.6885 51.6227 20.8412 51.6227 18.7009C51.6227 16.7803 52.0386 15.0388 52.8786 13.4763C53.7146 11.9056 54.8849 10.6605 56.3856 9.74904C57.8944 8.83758 59.6682 8.38185 61.7031 8.38185C63.6808 8.38185 65.3324 8.80503 66.6617 9.65138C67.987 10.4977 68.982 11.6167 69.6467 13.0042C70.3196 14.3958 70.658 15.9095 70.658 17.5453C70.658 18.3713 70.4867 18.9531 70.1524 19.2868C69.8139 19.6123 69.3368 19.7751 68.717 19.7751H58.6039C58.188 19.7751 58.0208 19.9989 58.0983 20.4424C58.3022 21.4434 58.82 22.3101 59.6478 23.0466C60.4716 23.7749 61.4421 24.1371 62.5513 24.1371C63.4525 24.1371 64.264 23.9865 64.9817 23.6813C65.6994 23.368 66.3681 22.9652 66.988 22.4769C67.5752 22.013 68.1216 21.834 68.6354 21.9398C69.1574 22.0375 69.5244 22.3101 69.7446 22.7536C69.9607 23.189 69.9281 23.6895 69.6467 24.251C68.929 25.6629 67.9096 26.8226 66.5965 27.7341C65.2793 28.6455 63.5952 29.1013 61.54 29.1013ZM58.7181 16.0804H63.8562C64.3985 16.0804 64.631 15.7997 64.5576 15.2341C64.4801 14.5423 64.1702 13.9889 63.6278 13.5739C63.0814 13.1629 62.3963 12.9554 61.5726 12.9554C60.0067 12.9554 58.9016 13.7814 58.2614 15.4294C58.0738 15.8648 58.2288 16.0804 58.7181 16.0804Z" fill="black"/>
<path d="M79.1092 29.1013C77.5311 29.1013 76.2261 28.6048 75.1944 27.6201C74.1709 26.6354 73.6612 25.1543 73.6612 23.1768V13.7367C73.6612 13.2158 73.4002 12.9554 72.8782 12.9554H72.4215C71.5162 12.9554 71.0677 12.5119 71.0677 11.6208V10.6117C71.0677 10.1804 71.1492 9.8467 71.3123 9.61883C71.4836 9.38283 71.7528 9.14683 72.1116 8.91896L77.6738 5.53355C78.2365 5.16734 78.7381 5.12258 79.1744 5.40334C79.6189 5.68817 79.8432 6.12762 79.8432 6.7217V8.07261C79.8432 8.6382 80.1246 8.91896 80.6914 8.91896H82.8445C83.7457 8.91896 84.1983 9.37062 84.1983 10.2699V11.6208C84.1983 12.5119 83.7457 12.9554 82.8445 12.9554H80.6098C80.096 12.9554 79.8432 13.2158 79.8432 13.7367V22.6234C79.8432 23.6 80.2673 24.0882 81.1155 24.0882C81.6048 24.0882 82.0044 24.015 82.3225 23.8604C82.6487 23.7098 83.0158 23.6325 83.4317 23.6325C84.2024 23.6325 84.5898 24.1208 84.5898 25.0973C84.5898 25.7931 84.3451 26.4483 83.8558 27.0667C83.3664 27.6771 82.7058 28.1695 81.8821 28.5479C81.0543 28.9141 80.1286 29.1013 79.1092 29.1013Z" fill="black"/>
<path d="M87.7455 28.5641C87.0482 28.5641 86.5589 28.377 86.2775 27.9945C85.9921 27.6039 85.9431 27.0749 86.1307 26.3994C86.2816 25.8705 86.3998 25.3415 86.4896 24.8207C86.5752 24.2917 86.6201 23.6122 86.6201 22.7861V5.87534C86.6201 5.35451 86.563 4.89471 86.4569 4.49188C86.3591 4.08091 86.249 3.74318 86.1307 3.48277C85.9431 3.0189 85.935 2.55503 86.0981 2.0993C86.2694 1.63543 86.6771 1.3506 87.3214 1.25295L90.339 0.66701C91.2076 0.496112 91.8315 0.565285 92.2149 0.878599C92.6063 1.18377 92.8021 1.66799 92.8021 2.32717V22.7861C92.8021 23.6122 92.8388 24.2917 92.9162 24.8207C92.9896 25.3415 93.1038 25.8705 93.2588 26.3994C93.4627 27.0749 93.426 27.6039 93.1446 27.9945C92.8592 28.377 92.3698 28.5641 91.6766 28.5641H87.7455Z" fill="black"/>
<path d="M105.075 29.1013C103.224 29.1013 101.543 28.6821 100.035 27.848C98.534 27.0139 97.3433 25.8135 96.4624 24.251C95.5898 22.6885 95.1575 20.8412 95.1575 18.7009C95.1575 16.5443 95.602 14.6929 96.4951 13.1507C97.3963 11.6126 98.5992 10.4326 100.1 9.61883C101.609 8.79689 103.268 8.38185 105.075 8.38185C106.934 8.38185 108.614 8.79689 110.115 9.61883C111.616 10.4326 112.798 11.6126 113.671 13.1507C114.552 14.6929 114.992 16.5443 114.992 18.7009C114.992 20.8412 114.54 22.6885 113.638 24.251C112.745 25.8135 111.55 27.0139 110.05 27.848C108.557 28.6821 106.902 29.1013 105.075 29.1013ZM105.385 24.4463C106.363 24.4463 107.171 24.0557 107.815 23.2744C108.455 22.485 108.778 21.3172 108.778 19.7751C108.778 17.8545 108.423 16.2513 107.717 14.9574C107.008 13.6553 106.013 13.0042 104.732 13.0042C103.754 13.0042 102.946 13.3949 102.318 14.1761C101.686 14.9574 101.372 16.1089 101.372 17.6266C101.372 18.888 101.523 20.0355 101.829 21.0772C102.143 22.1107 102.6 22.9286 103.199 23.5348C103.807 24.1452 104.537 24.4463 105.385 24.4463Z" fill="black"/>
<path d="M126.072 29.1013C124.343 29.1013 122.765 28.6821 121.342 27.848C119.915 27.0139 118.785 25.842 117.949 24.3324C117.109 22.8146 116.693 21.0283 116.693 18.9776C116.693 16.7111 117.134 14.7946 118.015 13.2321C118.904 11.6696 120.102 10.4733 121.603 9.63511C123.112 8.80096 124.772 8.38185 126.578 8.38185C128.046 8.38185 129.306 8.63413 130.362 9.13055C131.414 9.63104 132.226 10.2821 132.793 11.0837C133.355 11.8771 133.641 12.7357 133.641 13.6553C133.641 14.6888 133.331 15.4579 132.711 15.9665C132.091 16.4792 131.357 16.7315 130.509 16.7315C129.636 16.7315 128.968 16.4385 128.503 15.8526C128.046 15.2585 127.724 14.6644 127.54 14.0785C127.202 12.9514 126.598 12.3858 125.73 12.3858C124.849 12.3858 124.123 12.8252 123.561 13.7041C122.994 14.5749 122.712 15.6857 122.712 17.0407C122.712 18.9938 123.238 20.5238 124.295 21.6306C125.347 22.7373 126.664 23.2907 128.242 23.2907C129.11 23.2907 129.857 23.1564 130.477 22.8838C131.096 22.6153 131.651 22.2735 132.14 21.8584C132.573 21.48 133.041 21.3701 133.543 21.5329C134.041 21.6957 134.379 22.0537 134.554 22.6071C134.738 23.1605 134.587 23.8604 134.098 24.7067C133.302 26.0414 132.238 27.1115 130.901 27.9131C129.563 28.7025 127.952 29.1013 126.072 29.1013Z" fill="black"/>
<path d="M142.4 29.1013C140.463 29.1013 138.934 28.5438 137.817 27.4248C136.695 26.3099 136.136 24.9142 136.136 23.2419C136.136 21.3457 136.797 19.8565 138.126 18.7822C139.452 17.6999 141.246 17.1546 143.509 17.1546C144.366 17.1546 145.271 17.236 146.217 17.3988C146.682 17.4761 146.918 17.2442 146.918 16.6989V15.0876C146.918 13.9483 146.727 13.1996 146.347 12.8415C145.976 12.4834 145.458 12.3044 144.798 12.3044C144.308 12.3044 143.876 12.4956 143.509 12.874C143.15 13.2443 142.865 13.7204 142.661 14.3063C142.408 15.0794 142.058 15.6572 141.601 16.0479C141.152 16.4304 140.508 16.6175 139.66 16.6175C138.701 16.6175 137.955 16.3205 137.425 15.7223C136.903 15.1161 136.642 14.3633 136.642 13.46C136.642 12.516 136.989 11.6615 137.686 10.8884C138.379 10.1193 139.334 9.51304 140.541 9.06545C141.748 8.60972 143.138 8.38185 144.716 8.38185C147.62 8.38185 149.74 9.01662 151.078 10.2861C152.415 11.5557 153.084 13.2809 153.084 15.4619V20.6214C153.084 21.655 153.174 22.5054 153.361 23.1768C153.545 23.84 153.883 24.5277 154.373 25.2438C154.731 25.7321 154.813 26.196 154.617 26.6273C154.422 27.0505 154.067 27.3597 153.557 27.555L151.322 28.4828C150.931 28.6333 150.576 28.7595 150.262 28.8571C149.956 28.9629 149.663 29.0199 149.381 29.0199C148.847 29.0199 148.358 28.4095 147.913 27.1807C147.815 26.8999 147.677 26.7494 147.506 26.725C147.342 26.6924 147.155 26.7901 146.951 27.0179C146.462 27.6161 145.842 28.1166 145.091 28.5153C144.349 28.9059 143.452 29.1013 142.4 29.1013ZM144.292 24.6416C145.063 24.6416 145.695 24.3609 146.184 23.7953C146.674 23.2215 146.918 22.5501 146.918 21.777C146.918 21.3986 146.71 21.0853 146.298 20.833C145.883 20.5726 145.422 20.4424 144.912 20.4424C144.084 20.4424 143.444 20.6499 142.987 21.0609C142.539 21.4637 142.318 22.0008 142.318 22.6722C142.318 23.1605 142.486 23.6122 142.824 24.0231C143.159 24.4382 143.648 24.6416 144.292 24.6416Z" fill="black"/>
<path d="M157.872 28.5641C157.175 28.5641 156.686 28.377 156.404 27.9945C156.119 27.6039 156.07 27.0749 156.258 26.3994C156.408 25.8705 156.527 25.3415 156.616 24.8207C156.702 24.2917 156.747 23.6122 156.747 22.7861V5.87534C156.747 5.35451 156.69 4.89471 156.584 4.49188C156.486 4.08091 156.376 3.74318 156.258 3.48277C156.07 3.0189 156.062 2.55503 156.225 2.0993C156.396 1.63543 156.804 1.3506 157.448 1.25295L160.466 0.66701C161.334 0.496112 161.958 0.565285 162.342 0.878599C162.733 1.18377 162.929 1.66799 162.929 2.32717V22.7861C162.929 23.6122 162.966 24.2917 163.043 24.8207C163.116 25.3415 163.231 25.8705 163.386 26.3994C163.589 27.0749 163.553 27.6039 163.271 27.9945C162.986 28.377 162.497 28.5641 161.803 28.5641H157.872Z" fill="black"/>
<path d="M2.03248 28.5641C1.33517 28.5641 0.845828 28.377 0.564457 27.9945C0.279009 27.6039 0.225996 27.0749 0.401343 26.3994C0.552223 25.8705 0.670482 25.3415 0.760194 24.8207C0.858062 24.2917 0.906996 23.6122 0.906996 22.7861V13.6553C0.906996 13.1467 0.849906 12.6869 0.743882 12.2718C0.646014 11.8609 0.531834 11.5231 0.401343 11.2627C0.225996 10.807 0.254541 10.3472 0.4829 9.87925C0.71126 9.41538 1.08642 9.13055 1.60838 9.03289L4.60968 8.44696C5.49049 8.27606 6.11848 8.34523 6.5018 8.65854C6.89327 8.96372 7.089 9.44793 7.089 10.1071V10.6117C7.089 10.8395 7.16241 11.0023 7.31736 11.1C7.46824 11.1895 7.64767 11.0918 7.85564 10.807C8.36537 10.1356 8.99743 9.56593 9.74776 9.098C10.4981 8.62192 11.3993 8.38185 12.4554 8.38185C14.5107 8.38185 15.9869 9.19158 16.8921 10.807C16.9655 10.9372 17.0756 11.0145 17.2184 11.0348C17.357 11.0593 17.4957 10.9819 17.6262 10.807C18.1889 10.0908 18.9311 9.51304 19.8445 9.06545C20.7579 8.60972 21.8916 8.38185 23.2536 8.38185C24.9581 8.38185 26.2916 8.98406 27.2499 10.1885C28.2163 11.3929 28.7016 12.9636 28.7016 14.8923V22.7861C28.7016 23.6122 28.7423 24.2917 28.8321 24.8207C28.9299 25.3415 29.0523 25.8705 29.2072 26.3994C29.4111 27.0749 29.3622 27.6039 29.0604 27.9945C28.7668 28.377 28.2775 28.5641 27.5924 28.5641H23.645C22.9477 28.5641 22.4584 28.377 22.177 27.9945C21.8916 27.6039 21.8426 27.0749 22.0302 26.3994C22.1811 25.8705 22.2994 25.3415 22.3891 24.8207C22.4747 24.2917 22.5196 23.6122 22.5196 22.7861V16.0479C22.5196 15.1486 22.3157 14.4365 21.916 13.9157C21.5246 13.3867 20.9537 13.1182 20.2033 13.1182C19.4612 13.1182 18.8903 13.3908 18.4907 13.932C18.0869 14.465 17.8871 15.169 17.8871 16.0479V22.7861C17.8871 23.6122 17.9279 24.2917 18.0176 24.8207C18.1155 25.3415 18.2378 25.8705 18.3928 26.3994C18.5967 27.0749 18.5559 27.6039 18.2623 27.9945C17.9687 28.377 17.4712 28.5641 16.778 28.5641H12.8306C12.1333 28.5641 11.644 28.377 11.3626 27.9945C11.0771 27.6039 11.0282 27.0749 11.2158 26.3994C11.3667 25.8705 11.4849 25.3415 11.5746 24.8207C11.6725 24.2917 11.7214 23.6122 11.7214 22.7861V16.0479C11.7214 15.1486 11.5175 14.4365 11.1179 13.9157C10.7142 13.3867 10.1433 13.1182 9.40522 13.1182C8.6549 13.1182 8.07584 13.3867 7.67621 13.9157C7.28474 14.4365 7.089 15.1486 7.089 16.0479V22.7861C7.089 23.6122 7.12978 24.2917 7.2195 24.8207C7.30513 25.3415 7.42339 25.8705 7.57835 26.3994C7.78224 27.0749 7.74146 27.6039 7.44786 27.9945C7.15425 28.377 6.65675 28.5641 5.96352 28.5641H2.03248Z" fill="black"/>
<path d="M40.8145 29.1013C38.8327 29.1013 37.0955 28.6821 35.5949 27.848C34.1024 27.0139 32.9443 25.8135 32.1206 24.251C31.305 22.6885 30.8972 20.8412 30.8972 18.7009C30.8972 16.7803 31.3132 15.0388 32.1532 13.4763C32.9891 11.9056 34.1595 10.6605 35.6601 9.74904C37.1689 8.83758 38.9428 8.38185 40.9776 8.38185C42.9554 8.38185 44.6069 8.80503 45.9363 9.65138C47.2616 10.4977 48.2566 11.6167 48.9213 13.0042C49.5941 14.3958 49.9326 15.9095 49.9326 17.5453C49.9326 18.3713 49.7613 18.9531 49.4269 19.2868C49.0885 19.6123 48.6114 19.7751 47.9915 19.7751H37.8785C37.4625 19.7751 37.2953 19.9989 37.3728 20.4424C37.5767 21.4434 38.0946 22.3101 38.9224 23.0466C39.7461 23.7749 40.7167 24.1371 41.8258 24.1371C42.727 24.1371 43.5385 23.9865 44.2562 23.6813C44.9739 23.368 45.6427 22.9652 46.2625 22.4769C46.8497 22.013 47.3962 21.834 47.91 21.9398C48.4319 22.0375 48.7989 22.3101 49.0191 22.7536C49.2353 23.189 49.2026 23.6895 48.9213 24.251C48.2036 25.6629 47.1841 26.8226 45.8711 27.7341C44.5539 28.6455 42.8698 29.1013 40.8145 29.1013ZM37.9927 16.0804H43.1307C43.6731 16.0804 43.9055 15.7997 43.8321 15.2341C43.7547 14.5423 43.4447 13.9889 42.9024 13.5739C42.356 13.1629 41.6709 12.9554 40.8471 12.9554C39.2813 12.9554 38.1762 13.7814 37.5359 15.4294C37.3484 15.8648 37.5033 16.0804 37.9927 16.0804Z" fill="black"/>
<path d="M61.54 29.1013C59.5581 29.1013 57.821 28.6821 56.3203 27.848C54.8278 27.0139 53.6697 25.8135 52.846 24.251C52.0304 22.6885 51.6227 20.8412 51.6227 18.7009C51.6227 16.7803 52.0386 15.0388 52.8786 13.4763C53.7146 11.9056 54.8849 10.6605 56.3856 9.74904C57.8944 8.83758 59.6682 8.38185 61.7031 8.38185C63.6808 8.38185 65.3324 8.80503 66.6617 9.65138C67.987 10.4977 68.982 11.6167 69.6467 13.0042C70.3196 14.3958 70.658 15.9095 70.658 17.5453C70.658 18.3713 70.4867 18.9531 70.1524 19.2868C69.8139 19.6123 69.3368 19.7751 68.717 19.7751H58.6039C58.188 19.7751 58.0208 19.9989 58.0983 20.4424C58.3022 21.4434 58.82 22.3101 59.6478 23.0466C60.4716 23.7749 61.4421 24.1371 62.5513 24.1371C63.4525 24.1371 64.264 23.9865 64.9817 23.6813C65.6994 23.368 66.3681 22.9652 66.988 22.4769C67.5752 22.013 68.1216 21.834 68.6354 21.9398C69.1574 22.0375 69.5244 22.3101 69.7446 22.7536C69.9607 23.189 69.9281 23.6895 69.6467 24.251C68.929 25.6629 67.9096 26.8226 66.5965 27.7341C65.2793 28.6455 63.5952 29.1013 61.54 29.1013ZM58.7181 16.0804H63.8562C64.3985 16.0804 64.631 15.7997 64.5576 15.2341C64.4801 14.5423 64.1702 13.9889 63.6278 13.5739C63.0814 13.1629 62.3963 12.9554 61.5726 12.9554C60.0067 12.9554 58.9016 13.7814 58.2614 15.4294C58.0738 15.8648 58.2288 16.0804 58.7181 16.0804Z" fill="black"/>
<path d="M79.1092 29.1013C77.5311 29.1013 76.2261 28.6048 75.1944 27.6201C74.1709 26.6354 73.6612 25.1543 73.6612 23.1768V13.7367C73.6612 13.2158 73.4002 12.9554 72.8782 12.9554H72.4215C71.5162 12.9554 71.0677 12.5119 71.0677 11.6208V10.6117C71.0677 10.1804 71.1492 9.8467 71.3123 9.61883C71.4836 9.38283 71.7528 9.14683 72.1116 8.91896L77.6738 5.53355C78.2365 5.16734 78.7381 5.12258 79.1744 5.40334C79.6189 5.68817 79.8432 6.12762 79.8432 6.7217V8.07261C79.8432 8.6382 80.1246 8.91896 80.6914 8.91896H82.8445C83.7457 8.91896 84.1983 9.37062 84.1983 10.2699V11.6208C84.1983 12.5119 83.7457 12.9554 82.8445 12.9554H80.6098C80.096 12.9554 79.8432 13.2158 79.8432 13.7367V22.6234C79.8432 23.6 80.2673 24.0882 81.1155 24.0882C81.6048 24.0882 82.0044 24.015 82.3225 23.8604C82.6487 23.7098 83.0158 23.6325 83.4317 23.6325C84.2024 23.6325 84.5898 24.1208 84.5898 25.0973C84.5898 25.7931 84.3451 26.4483 83.8558 27.0667C83.3664 27.6771 82.7058 28.1695 81.8821 28.5479C81.0543 28.9141 80.1286 29.1013 79.1092 29.1013Z" fill="black"/>
<path d="M87.7455 28.5641C87.0482 28.5641 86.5589 28.377 86.2775 27.9945C85.9921 27.6039 85.9431 27.0749 86.1307 26.3994C86.2816 25.8705 86.3998 25.3415 86.4896 24.8207C86.5752 24.2917 86.6201 23.6122 86.6201 22.7861V5.87534C86.6201 5.35451 86.563 4.89471 86.4569 4.49188C86.3591 4.08091 86.249 3.74318 86.1307 3.48277C85.9431 3.0189 85.935 2.55503 86.0981 2.0993C86.2694 1.63543 86.6771 1.3506 87.3214 1.25295L90.339 0.66701C91.2076 0.496112 91.8315 0.565285 92.2149 0.878599C92.6063 1.18377 92.8021 1.66799 92.8021 2.32717V22.7861C92.8021 23.6122 92.8388 24.2917 92.9162 24.8207C92.9896 25.3415 93.1038 25.8705 93.2588 26.3994C93.4627 27.0749 93.426 27.6039 93.1446 27.9945C92.8592 28.377 92.3698 28.5641 91.6766 28.5641H87.7455Z" fill="black"/>
<path d="M105.075 29.1013C103.224 29.1013 101.543 28.6821 100.035 27.848C98.534 27.0139 97.3433 25.8135 96.4624 24.251C95.5898 22.6885 95.1575 20.8412 95.1575 18.7009C95.1575 16.5443 95.602 14.6929 96.4951 13.1507C97.3963 11.6126 98.5992 10.4326 100.1 9.61883C101.609 8.79689 103.268 8.38185 105.075 8.38185C106.934 8.38185 108.614 8.79689 110.115 9.61883C111.616 10.4326 112.798 11.6126 113.671 13.1507C114.552 14.6929 114.992 16.5443 114.992 18.7009C114.992 20.8412 114.54 22.6885 113.638 24.251C112.745 25.8135 111.55 27.0139 110.05 27.848C108.557 28.6821 106.902 29.1013 105.075 29.1013ZM105.385 24.4463C106.363 24.4463 107.171 24.0557 107.815 23.2744C108.455 22.485 108.778 21.3172 108.778 19.7751C108.778 17.8545 108.423 16.2513 107.717 14.9574C107.008 13.6553 106.013 13.0042 104.732 13.0042C103.754 13.0042 102.946 13.3949 102.318 14.1761C101.686 14.9574 101.372 16.1089 101.372 17.6266C101.372 18.888 101.523 20.0355 101.829 21.0772C102.143 22.1107 102.6 22.9286 103.199 23.5348C103.807 24.1452 104.537 24.4463 105.385 24.4463Z" fill="black"/>
<path d="M126.072 29.1013C124.343 29.1013 122.765 28.6821 121.342 27.848C119.915 27.0139 118.785 25.842 117.949 24.3324C117.109 22.8146 116.693 21.0283 116.693 18.9776C116.693 16.7111 117.134 14.7946 118.015 13.2321C118.904 11.6696 120.102 10.4733 121.603 9.63511C123.112 8.80096 124.772 8.38185 126.578 8.38185C128.046 8.38185 129.306 8.63413 130.362 9.13055C131.414 9.63104 132.226 10.2821 132.793 11.0837C133.355 11.8771 133.641 12.7357 133.641 13.6553C133.641 14.6888 133.331 15.4579 132.711 15.9665C132.091 16.4792 131.357 16.7315 130.509 16.7315C129.636 16.7315 128.968 16.4385 128.503 15.8526C128.046 15.2585 127.724 14.6644 127.54 14.0785C127.202 12.9514 126.598 12.3858 125.73 12.3858C124.849 12.3858 124.123 12.8252 123.561 13.7041C122.994 14.5749 122.712 15.6857 122.712 17.0407C122.712 18.9938 123.238 20.5238 124.295 21.6306C125.347 22.7373 126.664 23.2907 128.242 23.2907C129.11 23.2907 129.857 23.1564 130.477 22.8838C131.096 22.6153 131.651 22.2735 132.14 21.8584C132.573 21.48 133.041 21.3701 133.543 21.5329C134.041 21.6957 134.379 22.0537 134.554 22.6071C134.738 23.1605 134.587 23.8604 134.098 24.7067C133.302 26.0414 132.238 27.1115 130.901 27.9131C129.563 28.7025 127.952 29.1013 126.072 29.1013Z" fill="black"/>
<path d="M142.4 29.1013C140.463 29.1013 138.934 28.5438 137.817 27.4248C136.695 26.3099 136.136 24.9142 136.136 23.2419C136.136 21.3457 136.797 19.8565 138.126 18.7822C139.452 17.6999 141.246 17.1546 143.509 17.1546C144.366 17.1546 145.271 17.236 146.217 17.3988C146.682 17.4761 146.918 17.2442 146.918 16.6989V15.0876C146.918 13.9483 146.727 13.1996 146.347 12.8415C145.976 12.4834 145.458 12.3044 144.798 12.3044C144.308 12.3044 143.876 12.4956 143.509 12.874C143.15 13.2443 142.865 13.7204 142.661 14.3063C142.408 15.0794 142.058 15.6572 141.601 16.0479C141.152 16.4304 140.508 16.6175 139.66 16.6175C138.701 16.6175 137.955 16.3205 137.425 15.7223C136.903 15.1161 136.642 14.3633 136.642 13.46C136.642 12.516 136.989 11.6615 137.686 10.8884C138.379 10.1193 139.334 9.51304 140.541 9.06545C141.748 8.60972 143.138 8.38185 144.716 8.38185C147.62 8.38185 149.74 9.01662 151.078 10.2861C152.415 11.5557 153.084 13.2809 153.084 15.4619V20.6214C153.084 21.655 153.174 22.5054 153.361 23.1768C153.545 23.84 153.883 24.5277 154.373 25.2438C154.731 25.7321 154.813 26.196 154.617 26.6273C154.422 27.0505 154.067 27.3597 153.557 27.555L151.322 28.4828C150.931 28.6333 150.576 28.7595 150.262 28.8571C149.956 28.9629 149.663 29.0199 149.381 29.0199C148.847 29.0199 148.358 28.4095 147.913 27.1807C147.815 26.8999 147.677 26.7494 147.506 26.725C147.342 26.6924 147.155 26.7901 146.951 27.0179C146.462 27.6161 145.842 28.1166 145.091 28.5153C144.349 28.9059 143.452 29.1013 142.4 29.1013ZM144.292 24.6416C145.063 24.6416 145.695 24.3609 146.184 23.7953C146.674 23.2215 146.918 22.5501 146.918 21.777C146.918 21.3986 146.71 21.0853 146.298 20.833C145.883 20.5726 145.422 20.4424 144.912 20.4424C144.084 20.4424 143.444 20.6499 142.987 21.0609C142.539 21.4637 142.318 22.0008 142.318 22.6722C142.318 23.1605 142.486 23.6122 142.824 24.0231C143.159 24.4382 143.648 24.6416 144.292 24.6416Z" fill="black"/>
<path d="M157.872 28.5641C157.175 28.5641 156.686 28.377 156.404 27.9945C156.119 27.6039 156.07 27.0749 156.258 26.3994C156.408 25.8705 156.527 25.3415 156.616 24.8207C156.702 24.2917 156.747 23.6122 156.747 22.7861V5.87534C156.747 5.35451 156.69 4.89471 156.584 4.49188C156.486 4.08091 156.376 3.74318 156.258 3.48277C156.07 3.0189 156.062 2.55503 156.225 2.0993C156.396 1.63543 156.804 1.3506 157.448 1.25295L160.466 0.66701C161.334 0.496112 161.958 0.565285 162.342 0.878599C162.733 1.18377 162.929 1.66799 162.929 2.32717V22.7861C162.929 23.6122 162.966 24.2917 163.043 24.8207C163.116 25.3415 163.231 25.8705 163.386 26.3994C163.589 27.0749 163.553 27.6039 163.271 27.9945C162.986 28.377 162.497 28.5641 161.803 28.5641H157.872Z" fill="black"/>
</svg>
