<svg xmlns="http://www.w3.org/2000/svg" xmlns:xlink="http://www.w3.org/1999/xlink" width="126" zoomAndPan="magnify" viewBox="0 0 94.5 94.499998" height="126" preserveAspectRatio="xMidYMid meet" version="1.0"><defs><clipPath id="b80a6e2ce6"><path d="M 0 23 L 93.257812 23 L 93.257812 93.257812 L 0 93.257812 Z M 0 23 " clip-rule="nonzero"/></clipPath><clipPath id="f3a5a445d5"><path d="M 1 59 L 92 59 L 92 93.257812 L 1 93.257812 Z M 1 59 " clip-rule="nonzero"/></clipPath><clipPath id="cd034d3a94"><path d="M 54 35 L 93.257812 35 L 93.257812 93 L 54 93 Z M 54 35 " clip-rule="nonzero"/></clipPath><clipPath id="2d67a3d5df"><path d="M 0 23 L 93.257812 23 L 93.257812 93.257812 L 0 93.257812 Z M 0 23 " clip-rule="nonzero"/></clipPath><clipPath id="aeff3c9261"><path d="M 1 59 L 92 59 L 92 93.257812 L 1 93.257812 Z M 1 59 " clip-rule="nonzero"/></clipPath><clipPath id="d638e9d612"><path d="M 54 35 L 93.257812 35 L 93.257812 93 L 54 93 Z M 54 35 " clip-rule="nonzero"/></clipPath></defs><g clip-path="url(#b80a6e2ce6)"><path fill="#a6a6a6" d="M 92.964844 35.792969 C 92.644531 35.085938 92.140625 34.476562 91.511719 33.984375 L 77.324219 23.226562 L 16.109375 23.226562 L 1.917969 33.984375 C 1.289062 34.476562 0.785156 35.085938 0.464844 35.792969 C 0.164062 36.421875 0 37.113281 0 37.835938 L 0 88.597656 C 0 90.035156 0.628906 91.335938 1.628906 92.203125 C 2.480469 92.964844 3.59375 93.429688 4.832031 93.429688 L 88.597656 93.429688 C 89.839844 93.429688 90.953125 92.964844 91.800781 92.203125 C 92.800781 91.335938 93.429688 90.035156 93.429688 88.597656 L 93.429688 37.835938 C 93.429688 37.113281 93.273438 36.421875 92.964844 35.792969 " fill-opacity="1" fill-rule="nonzero"/></g><path fill="#d4c7fb" d="M 16.109375 47.519531 L 16.109375 3.222656 C 16.109375 1.441406 17.550781 0 19.332031 0 L 74.101562 0 C 75.882812 0 77.324219 1.441406 77.324219 3.222656 L 77.324219 47.519531 L 46.714844 74.101562 L 16.109375 47.519531 " fill-opacity="1" fill-rule="nonzero"/><path fill="#d9d9d9" d="M 38.640625 64.433594 L 1.628906 92.203125 C 0.628906 91.335938 0 90.035156 0 88.597656 L 0 37.835938 C 0 37.113281 0.164062 36.421875 0.464844 35.792969 L 38.640625 64.433594 " fill-opacity="1" fill-rule="nonzero"/><g clip-path="url(#f3a5a445d5)"><path fill="#e3e3e3" d="M 91.800781 92.203125 C 90.953125 92.964844 89.839844 93.429688 88.597656 93.429688 L 4.832031 93.429688 C 3.59375 93.429688 2.480469 92.964844 1.628906 92.203125 L 38.640625 64.433594 L 43.800781 60.566406 C 45.527344 59.28125 47.90625 59.28125 49.628906 60.566406 L 54.789062 64.433594 L 91.800781 92.203125 " fill-opacity="1" fill-rule="nonzero"/></g><g clip-path="url(#cd034d3a94)"><path fill="#d9d9d9" d="M 93.429688 37.835938 L 93.429688 88.597656 C 93.429688 90.035156 92.800781 91.335938 91.800781 92.203125 L 54.789062 64.433594 L 92.964844 35.792969 C 93.273438 36.421875 93.429688 37.113281 93.429688 37.835938 " fill-opacity="1" fill-rule="nonzero"/></g><path fill="#ffffff" d="M 50.382812 36.691406 C 50.378906 36.691406 50.378906 36.691406 50.371094 36.691406 C 47.34375 36.691406 44.496094 35.503906 42.355469 33.355469 C 41.726562 32.726562 41.726562 31.703125 42.355469 31.078125 C 42.984375 30.441406 44.011719 30.449219 44.632812 31.078125 C 46.167969 32.621094 48.207031 33.46875 50.378906 33.46875 C 50.378906 33.46875 50.382812 33.46875 50.382812 33.46875 C 52.5625 33.46875 54.605469 32.621094 56.140625 31.078125 L 63.660156 23.558594 C 65.195312 22.015625 66.046875 19.980469 66.046875 17.800781 C 66.046875 15.628906 65.195312 13.578125 63.660156 12.042969 C 60.488281 8.871094 55.324219 8.871094 52.152344 12.042969 L 45.886719 18.316406 C 45.253906 18.945312 44.238281 18.945312 43.605469 18.316406 C 42.976562 17.6875 42.976562 16.667969 43.605469 16.039062 L 49.875 9.765625 C 54.304688 5.335938 61.507812 5.335938 65.9375 9.765625 C 68.085938 11.910156 69.269531 14.761719 69.269531 17.800781 C 69.269531 20.835938 68.085938 23.691406 65.9375 25.835938 L 58.425781 33.355469 C 56.273438 35.507812 53.417969 36.691406 50.382812 36.691406 " fill-opacity="1" fill-rule="nonzero"/><path fill="#ffffff" d="M 35.527344 51.542969 C 32.613281 51.542969 29.707031 50.433594 27.492188 48.226562 C 23.070312 43.785156 23.070312 36.578125 27.484375 32.15625 L 35.003906 24.636719 C 39.421875 20.210938 46.632812 20.210938 51.078125 24.628906 C 51.699219 25.257812 51.707031 26.277344 51.078125 26.914062 C 50.453125 27.542969 49.429688 27.542969 48.796875 26.914062 C 45.621094 23.742188 40.453125 23.746094 37.285156 26.914062 L 29.761719 34.433594 C 26.597656 37.605469 26.597656 42.769531 29.761719 45.949219 C 32.949219 49.113281 38.109375 49.113281 41.277344 45.949219 L 47.550781 39.667969 C 48.183594 39.039062 49.203125 39.039062 49.832031 39.667969 C 50.460938 40.296875 50.460938 41.316406 49.832031 41.945312 L 43.558594 48.226562 C 41.34375 50.433594 38.433594 51.542969 35.527344 51.542969 " fill-opacity="1" fill-rule="nonzero"/><g clip-path="url(#2d67a3d5df)"><path fill="#a6a6a6" d="M 92.964844 35.792969 C 92.644531 35.085938 92.140625 34.476562 91.511719 33.984375 L 77.324219 23.226562 L 16.109375 23.226562 L 1.917969 33.984375 C 1.289062 34.476562 0.785156 35.085938 0.464844 35.792969 C 0.164062 36.421875 0 37.113281 0 37.835938 L 0 88.597656 C 0 90.035156 0.628906 91.335938 1.628906 92.203125 C 2.480469 92.964844 3.59375 93.429688 4.832031 93.429688 L 88.597656 93.429688 C 89.839844 93.429688 90.953125 92.964844 91.800781 92.203125 C 92.800781 91.335938 93.429688 90.035156 93.429688 88.597656 L 93.429688 37.835938 C 93.429688 37.113281 93.273438 36.421875 92.964844 35.792969 " fill-opacity="1" fill-rule="nonzero"/></g><path fill="#d4c7fb" d="M 16.109375 47.519531 L 16.109375 3.222656 C 16.109375 1.441406 17.550781 0 19.332031 0 L 74.101562 0 C 75.882812 0 77.324219 1.441406 77.324219 3.222656 L 77.324219 47.519531 L 46.714844 74.101562 L 16.109375 47.519531 " fill-opacity="1" fill-rule="nonzero"/><path fill="#d9d9d9" d="M 38.640625 64.433594 L 1.628906 92.203125 C 0.628906 91.335938 0 90.035156 0 88.597656 L 0 37.835938 C 0 37.113281 0.164062 36.421875 0.464844 35.792969 L 38.640625 64.433594 " fill-opacity="1" fill-rule="nonzero"/><g clip-path="url(#aeff3c9261)"><path fill="#e3e3e3" d="M 91.800781 92.203125 C 90.953125 92.964844 89.839844 93.429688 88.597656 93.429688 L 4.832031 93.429688 C 3.59375 93.429688 2.480469 92.964844 1.628906 92.203125 L 38.640625 64.433594 L 43.800781 60.566406 C 45.527344 59.28125 47.90625 59.28125 49.628906 60.566406 L 54.789062 64.433594 L 91.800781 92.203125 " fill-opacity="1" fill-rule="nonzero"/></g><g clip-path="url(#d638e9d612)"><path fill="#d9d9d9" d="M 93.429688 37.835938 L 93.429688 88.597656 C 93.429688 90.035156 92.800781 91.335938 91.800781 92.203125 L 54.789062 64.433594 L 92.964844 35.792969 C 93.273438 36.421875 93.429688 37.113281 93.429688 37.835938 " fill-opacity="1" fill-rule="nonzero"/></g><path fill="#ffffff" d="M 50.382812 36.691406 C 50.378906 36.691406 50.378906 36.691406 50.371094 36.691406 C 47.34375 36.691406 44.496094 35.503906 42.355469 33.355469 C 41.726562 32.726562 41.726562 31.703125 42.355469 31.078125 C 42.984375 30.441406 44.011719 30.449219 44.632812 31.078125 C 46.167969 32.621094 48.207031 33.46875 50.378906 33.46875 C 50.378906 33.46875 50.382812 33.46875 50.382812 33.46875 C 52.5625 33.46875 54.605469 32.621094 56.140625 31.078125 L 63.660156 23.558594 C 65.195312 22.015625 66.046875 19.980469 66.046875 17.800781 C 66.046875 15.628906 65.195312 13.578125 63.660156 12.042969 C 60.488281 8.871094 55.324219 8.871094 52.152344 12.042969 L 45.886719 18.316406 C 45.253906 18.945312 44.238281 18.945312 43.605469 18.316406 C 42.976562 17.6875 42.976562 16.667969 43.605469 16.039062 L 49.875 9.765625 C 54.304688 5.335938 61.507812 5.335938 65.9375 9.765625 C 68.085938 11.910156 69.269531 14.761719 69.269531 17.800781 C 69.269531 20.835938 68.085938 23.691406 65.9375 25.835938 L 58.425781 33.355469 C 56.273438 35.507812 53.417969 36.691406 50.382812 36.691406 " fill-opacity="1" fill-rule="nonzero"/><path fill="#ffffff" d="M 35.527344 51.542969 C 32.613281 51.542969 29.707031 50.433594 27.492188 48.226562 C 23.070312 43.785156 23.070312 36.578125 27.484375 32.15625 L 35.003906 24.636719 C 39.421875 20.210938 46.632812 20.210938 51.078125 24.628906 C 51.699219 25.257812 51.707031 26.277344 51.078125 26.914062 C 50.453125 27.542969 49.429688 27.542969 48.796875 26.914062 C 45.621094 23.742188 40.453125 23.746094 37.285156 26.914062 L 29.761719 34.433594 C 26.597656 37.605469 26.597656 42.769531 29.761719 45.949219 C 32.949219 49.113281 38.109375 49.113281 41.277344 45.949219 L 47.550781 39.667969 C 48.183594 39.039062 49.203125 39.039062 49.832031 39.667969 C 50.460938 40.296875 50.460938 41.316406 49.832031 41.945312 L 43.558594 48.226562 C 41.34375 50.433594 38.433594 51.542969 35.527344 51.542969 " fill-opacity="1" fill-rule="nonzero"/></svg>