<svg xmlns="http://www.w3.org/2000/svg" xmlns:xlink="http://www.w3.org/1999/xlink" width="60" zoomAndPan="magnify" viewBox="0 0 45 27.749998" height="37" preserveAspectRatio="xMidYMid meet" version="1.0"><defs><clipPath id="5ca2c03bf1"><path d="M 0.640625 0 L 23 0 L 23 27.503906 L 0.640625 27.503906 Z M 0.640625 0 " clip-rule="nonzero"/></clipPath><clipPath id="a0c96cf778"><path d="M 22 0 L 44.496094 0 L 44.496094 27.503906 L 22 27.503906 Z M 22 0 " clip-rule="nonzero"/></clipPath><clipPath id="1b50007ee3"><path d="M 42 21 L 44.496094 21 L 44.496094 23 L 42 23 Z M 42 21 " clip-rule="nonzero"/></clipPath><clipPath id="2880c12333"><path d="M 0.199219 0.0625 L 23 0.0625 L 23 27.503906 L 0.199219 27.503906 Z M 0.199219 0.0625 " clip-rule="nonzero"/></clipPath><clipPath id="af32b52672"><path d="M 22 0.0625 L 44.054688 0.0625 L 44.054688 27.503906 L 22 27.503906 Z M 22 0.0625 " clip-rule="nonzero"/></clipPath></defs><path fill="#ff5f00" d="M 16.648438 2.941406 L 28.488281 2.941406 L 28.488281 24.5625 L 16.648438 24.5625 Z M 16.648438 2.941406 " fill-opacity="1" fill-rule="nonzero"/><g clip-path="url(#5ca2c03bf1)"><path fill="#eb001b" d="M 17.402344 13.75 C 17.402344 9.550781 19.316406 5.539062 22.550781 2.941406 C 16.6875 -1.757812 8.191406 -0.726562 3.566406 5.269531 C -1.054688 11.230469 -0.0390625 19.863281 5.859375 24.5625 C 10.785156 28.496094 17.664062 28.496094 22.589844 24.5625 C 19.316406 21.964844 17.402344 17.953125 17.402344 13.75 Z M 17.402344 13.75 " fill-opacity="1" fill-rule="nonzero"/></g><g clip-path="url(#a0c96cf778)"><path fill="#f79e1b" d="M 44.464844 13.75 C 44.464844 21.351562 38.414062 27.503906 30.933594 27.503906 C 27.886719 27.503906 24.957031 26.472656 22.589844 24.5625 C 28.453125 19.863281 29.46875 11.230469 24.84375 5.234375 C 24.167969 4.394531 23.414062 3.589844 22.589844 2.941406 C 28.453125 -1.757812 36.984375 -0.726562 41.570312 5.269531 C 43.449219 7.675781 44.464844 10.65625 44.464844 13.75 Z M 44.464844 13.75 " fill-opacity="1" fill-rule="nonzero"/></g><g clip-path="url(#1b50007ee3)"><path fill="#f79e1b" d="M 43.1875 22.269531 L 43.1875 21.8125 L 43.375 21.8125 L 43.375 21.734375 L 42.921875 21.734375 L 42.921875 21.8125 L 43.113281 21.8125 L 43.113281 22.269531 Z M 44.050781 22.269531 L 44.050781 21.734375 L 43.902344 21.734375 L 43.75 22.117188 L 43.601562 21.734375 L 43.449219 21.734375 L 43.449219 22.269531 L 43.5625 22.269531 L 43.5625 21.847656 L 43.714844 22.191406 L 43.824219 22.191406 L 43.976562 21.847656 L 43.976562 22.269531 Z M 44.050781 22.269531 " fill-opacity="1" fill-rule="nonzero"/></g><path fill="#ff5f00" d="M 16.207031 3.003906 L 28.046875 3.003906 L 28.046875 24.621094 L 16.207031 24.621094 Z M 16.207031 3.003906 " fill-opacity="1" fill-rule="nonzero"/><g clip-path="url(#2880c12333)"><path fill="#eb001b" d="M 16.960938 13.8125 C 16.960938 9.609375 18.875 5.601562 22.109375 3.003906 C 16.246094 -1.695312 7.75 -0.664062 3.128906 5.332031 C -1.496094 11.292969 -0.480469 19.925781 5.421875 24.621094 C 10.34375 28.558594 17.222656 28.558594 22.148438 24.621094 C 18.875 22.027344 16.960938 18.015625 16.960938 13.8125 Z M 16.960938 13.8125 " fill-opacity="1" fill-rule="nonzero"/></g><g clip-path="url(#af32b52672)"><path fill="#f79e1b" d="M 44.023438 13.8125 C 44.023438 21.414062 37.972656 27.5625 30.492188 27.5625 C 27.445312 27.5625 24.515625 26.53125 22.148438 24.621094 C 28.011719 19.925781 29.027344 11.292969 24.402344 5.292969 C 23.726562 4.453125 22.972656 3.652344 22.148438 3.003906 C 28.011719 -1.695312 36.542969 -0.664062 41.128906 5.332031 C 43.007812 7.738281 44.023438 10.71875 44.023438 13.8125 Z M 44.023438 13.8125 " fill-opacity="1" fill-rule="nonzero"/></g><path fill="#f79e1b" d="M 42.746094 22.332031 L 42.746094 21.871094 L 42.933594 21.871094 L 42.933594 21.796875 L 42.484375 21.796875 L 42.484375 21.871094 L 42.671875 21.871094 L 42.671875 22.332031 Z M 43.609375 22.332031 L 43.609375 21.796875 L 43.460938 21.796875 L 43.308594 22.179688 L 43.160156 21.796875 L 43.007812 21.796875 L 43.007812 22.332031 L 43.121094 22.332031 L 43.121094 21.910156 L 43.273438 22.253906 L 43.386719 22.253906 L 43.535156 21.910156 L 43.535156 22.332031 Z M 43.609375 22.332031 " fill-opacity="1" fill-rule="nonzero"/></svg>