<svg xmlns="http://www.w3.org/2000/svg" xmlns:xlink="http://www.w3.org/1999/xlink" width="69" zoomAndPan="magnify" viewBox="0 0 51.75 17.25" height="23" preserveAspectRatio="xMidYMid meet" version="1.0"><defs><clipPath id="85c3afe4ce"><path d="M 1 0 L 50.550781 0 L 50.550781 15.8125 L 1 15.8125 Z M 1 0 " clip-rule="nonzero"/></clipPath></defs><g clip-path="url(#85c3afe4ce)"><path fill="#000000" d="M 33.257812 0 C 29.75 0 26.597656 1.804688 26.597656 5.117188 C 26.597656 8.929688 32.164062 9.191406 32.164062 11.085938 C 32.164062 11.886719 31.21875 12.613281 29.636719 12.613281 C 27.371094 12.613281 25.675781 11.609375 25.675781 11.609375 L 24.957031 14.957031 C 24.957031 14.957031 26.902344 15.8125 29.503906 15.8125 C 33.351562 15.8125 36.371094 13.933594 36.371094 10.546875 C 36.371094 6.53125 30.785156 6.269531 30.785156 4.5 C 30.785156 3.871094 31.558594 3.179688 33.144531 3.179688 C 34.9375 3.179688 36.410156 3.90625 36.410156 3.90625 L 37.125 0.667969 C 37.105469 0.667969 35.503906 0 33.257812 0 Z M 1.113281 0.242188 L 1.019531 0.726562 C 1.019531 0.726562 2.488281 0.984375 3.828125 1.527344 C 5.546875 2.140625 5.660156 2.492188 5.960938 3.589844 L 9.113281 15.550781 L 13.335938 15.550781 L 19.808594 0.242188 L 15.601562 0.242188 L 11.433594 10.660156 L 9.734375 1.824219 C 9.582031 0.820312 8.789062 0.242188 7.808594 0.242188 C 7.808594 0.242188 1.113281 0.242188 1.113281 0.242188 Z M 21.503906 0.242188 L 18.203125 15.550781 L 22.222656 15.550781 L 25.503906 0.242188 Z M 43.878906 0.242188 C 42.917969 0.242188 42.40625 0.742188 42.03125 1.636719 L 36.144531 15.550781 L 40.351562 15.550781 L 41.160156 13.226562 L 46.292969 13.226562 L 46.785156 15.550781 L 50.5 15.550781 L 47.273438 0.242188 Z M 44.425781 4.390625 L 45.671875 10.136719 L 42.332031 10.136719 Z M 44.425781 4.390625 " fill-opacity="1" fill-rule="nonzero"/><path fill="#000000" d="M 33.253906 0 C 29.746094 0 26.59375 1.804688 26.59375 5.117188 C 26.59375 8.929688 32.160156 9.191406 32.160156 11.085938 C 32.160156 11.886719 31.214844 12.613281 29.632812 12.613281 C 27.367188 12.613281 25.671875 11.609375 25.671875 11.609375 L 24.953125 14.957031 C 24.953125 14.957031 26.898438 15.8125 29.5 15.8125 C 33.347656 15.8125 36.367188 13.933594 36.367188 10.546875 C 36.367188 6.53125 30.78125 6.269531 30.78125 4.5 C 30.78125 3.871094 31.554688 3.179688 33.140625 3.179688 C 34.933594 3.179688 36.402344 3.90625 36.402344 3.90625 L 37.121094 0.667969 C 37.101562 0.667969 35.5 0 33.253906 0 Z M 1.109375 0.242188 L 1.015625 0.726562 C 1.015625 0.726562 2.484375 0.984375 3.824219 1.527344 C 5.542969 2.140625 5.65625 2.492188 5.957031 3.589844 L 9.105469 15.550781 L 13.332031 15.550781 L 19.804688 0.242188 L 15.597656 0.242188 L 11.425781 10.660156 L 9.730469 1.824219 C 9.578125 0.820312 8.785156 0.242188 7.804688 0.242188 C 7.804688 0.242188 1.109375 0.242188 1.109375 0.242188 Z M 21.5 0.242188 L 18.199219 15.550781 L 22.21875 15.550781 L 25.5 0.242188 Z M 43.875 0.242188 C 42.914062 0.242188 42.402344 0.742188 42.027344 1.636719 L 36.140625 15.550781 L 40.347656 15.550781 L 41.15625 13.226562 L 46.289062 13.226562 L 46.78125 15.550781 L 50.496094 15.550781 L 47.269531 0.242188 Z M 44.421875 4.390625 L 45.667969 10.136719 L 42.328125 10.136719 Z M 44.421875 4.390625 " fill-opacity="1" fill-rule="nonzero"/></g></svg>