<svg width="68" height="68" viewBox="0 0 68 68" fill="none" xmlns="http://www.w3.org/2000/svg">
<g clip-path="url(#clip0_4_57)">
<path d="M27.0187 41.2562L19.3998 49.1187C18.853 49.6797 17.9577 49.6939 17.3967 49.1499C16.8357 48.6059 16.8215 47.7077 17.3627 47.1467L24.6132 39.6667H1.41667C0.634667 39.6667 0 39.0321 0 38.2501C0 37.4681 0.634667 36.8334 1.41667 36.8334H24.6132L17.3627 29.3534C16.8215 28.7924 16.8328 27.8942 17.3967 27.3502C17.9605 26.8062 18.8558 26.8232 19.3998 27.3814L27.0357 35.2609C27.8205 36.0457 28.2653 37.1139 28.2653 38.2501C28.2653 39.3862 27.8205 40.4544 27.0187 41.2562ZM45.3333 31.1667C43.7693 31.1667 42.5 32.4361 42.5 34.0001C42.5 35.5641 43.7693 36.8334 45.3333 36.8334C46.8973 36.8334 48.1667 35.5641 48.1667 34.0001C48.1667 32.4361 46.8973 31.1667 45.3333 31.1667ZM68 15.0734V58.0806C68 63.5489 63.5517 67.9972 58.0833 67.9972H32.5833C27.115 67.9972 22.6667 63.5489 22.6667 58.0806V52.4139C22.6667 51.6319 23.3013 50.9972 24.0833 50.9972C24.8653 50.9972 25.5 51.6319 25.5 52.4139V58.0806C25.5 61.9849 28.6762 65.1639 32.5833 65.1639H34V9.91957C34 9.43507 34.0907 8.9704 34.1587 8.50007H32.5833C28.6762 8.50007 25.5 11.6791 25.5 15.5834V21.2501C25.5 22.0321 24.8653 22.6667 24.0833 22.6667C23.3013 22.6667 22.6667 22.0321 22.6667 21.2501V15.5834C22.6667 10.1151 27.115 5.66674 32.5833 5.66674H34.9548C35.5753 4.3634 36.4792 3.19324 37.6295 2.24974C39.9358 0.35707 42.942 -0.388097 45.8575 0.192737L57.7462 2.5699C63.6877 3.75707 68 9.01574 68 15.0734ZM65.1667 15.0734C65.1667 10.3616 61.812 6.27307 57.1965 5.3494L45.3078 2.97224C43.2112 2.55007 41.0748 3.09124 39.4287 4.4399C37.7825 5.7914 36.8362 7.7889 36.8362 9.91957V65.1667H58.0862C61.9933 65.1667 65.1695 61.9877 65.1695 58.0834L65.1667 15.0734Z" fill="white"/>
</g>
<defs>
<clipPath id="clip0_4_57">
<rect width="68" height="68" fill="white"/>
</clipPath>
</defs>
</svg>
