<svg width="14" height="14" viewBox="0 0 14 14" fill="none" xmlns="http://www.w3.org/2000/svg">
<g clip-path="url(#clip0_4_32)">
<g clip-path="url(#clip1_4_32)">
<g clip-path="url(#clip2_4_32)">
<path d="M8.3125 6C7.75133 6 7.28292 6.24208 7 6.63583C6.71708 6.24208 6.24867 6 5.6875 6C4.80258 6 4.08333 6.7665 4.08333 7.70917C4.08333 8.94292 5.57025 10.4555 6.35658 11.0826C6.54617 11.2337 6.77308 11.3089 7 11.3089C7.22692 11.3089 7.45383 11.2337 7.644 11.0826C8.43033 10.4555 9.91667 8.9435 9.91667 7.70917C9.91667 6.7665 9.19742 6 8.3125 6ZM7.28 10.6264C7.1155 10.7582 6.88508 10.7582 6.72058 10.6264C5.86775 9.94625 4.66667 8.59175 4.66667 7.70975C4.66667 7.08908 5.12458 6.58392 5.6875 6.58392C6.28833 6.58392 6.70833 6.994 6.70833 7.58083C6.70833 7.74183 6.839 7.8725 7 7.8725C7.161 7.8725 7.29167 7.74183 7.29167 7.58083C7.29167 6.994 7.71167 6.58392 8.3125 6.58392C8.87542 6.58392 9.33333 7.08908 9.33333 7.70975C9.33333 8.59175 8.13225 9.94683 7.28 10.6264ZM11.375 0.166667H10.5V-0.708333C10.5 -0.869333 10.3693 -1 10.2083 -1C10.0473 -1 9.91667 -0.869333 9.91667 -0.708333V0.166667H4.08333V-0.708333C4.08333 -0.869333 3.95267 -1 3.79167 -1C3.63067 -1 3.5 -0.869333 3.5 -0.708333V0.166667H2.625C1.17775 0.166667 0 1.34442 0 2.79167V10.375C0 11.8222 1.17775 13 2.625 13H11.375C12.8222 13 14 11.8222 14 10.375V2.79167C14 1.34442 12.8222 0.166667 11.375 0.166667ZM2.625 0.75H11.375C12.5008 0.75 13.4167 1.66583 13.4167 2.79167V3.66667H0.583333V2.79167C0.583333 1.66583 1.49917 0.75 2.625 0.75ZM11.375 12.4167H2.625C1.49917 12.4167 0.583333 11.5008 0.583333 10.375V4.25H13.4167V10.375C13.4167 11.5008 12.5008 12.4167 11.375 12.4167Z" fill="black"/>
</g>
</g>
</g>
<defs>
<clipPath id="clip0_4_32">
<rect width="14" height="14" fill="white"/>
</clipPath>
<clipPath id="clip1_4_32">
<rect width="14" height="14" fill="white"/>
</clipPath>
<clipPath id="clip2_4_32">
<rect width="14" height="14" fill="white" transform="translate(0 -1)"/>
</clipPath>
</defs>
</svg>
