<svg width="68" height="68" viewBox="0 0 68 68" fill="none" xmlns="http://www.w3.org/2000/svg">
<g clip-path="url(#clip0_4_482)">
<path d="M13.1495 62.1718L12.3533 64.8918C6.10584 63.0615 1.96917 58.9305 0.0595006 52.6065L2.771 51.7876C4.4115 57.2106 7.80583 60.6078 13.1495 62.1718ZM49.6428 13.1608L52.3543 12.342C50.4475 6.02081 46.3108 1.88697 40.0662 0.0566406L39.27 2.77664C44.6137 4.34064 48.0023 7.73781 49.6428 13.1608ZM41.0833 68C41.0097 68 41.1598 68 41.0833 68V68ZM68 24.0436V41.5253C68 47.8975 65.4075 54.1251 60.8883 58.616L58.5763 60.911C53.9693 65.4868 47.5717 68 41.0833 68C34.5128 67.9405 28.4467 65.3111 23.8652 60.5993L1.98617 38.1253C-0.274833 35.8615 -0.648833 32.2801 1.1305 29.8066C2.07967 28.4863 3.4765 27.591 5.032 27.2765L2.51317 24.7576C0.235167 22.4796 -0.138833 18.8955 1.64333 16.4248C2.47917 15.266 3.79667 14.5831 5.457 14.4471C5.79983 14.4188 6.15683 14.4188 6.51667 14.4386C5.38333 12.2995 5.45417 9.67864 6.85383 7.73781C7.95317 6.21064 9.6475 5.25014 11.5005 5.09997C13.3507 4.93847 15.1725 5.61847 16.4872 6.93314L17.476 7.92481C17.6318 7.05781 17.969 6.22481 18.4988 5.48814C19.5982 3.96097 21.2925 3.00047 23.1455 2.85031C24.9985 2.70297 26.8175 3.36881 28.1322 4.68347L53.8333 30.4215V24.3411C53.8333 20.7343 56.372 17.6006 59.7352 17.051C61.8148 16.7195 63.9172 17.2918 65.5038 18.6433C67.0905 19.992 68 21.9583 68 24.0408V24.0436ZM65.1667 24.0436C65.1667 22.797 64.6198 21.6155 63.6678 20.8051C62.7017 19.9806 61.472 19.6406 60.1913 19.8531C58.1825 20.179 56.6667 22.1113 56.6667 24.3468V37.2725L26.1262 6.68947C25.4008 5.96414 24.3978 5.59581 23.3722 5.67797C22.3323 5.76297 21.4172 6.28431 20.7967 7.14847C19.8192 8.50564 20.0657 10.5145 21.3718 11.8206L21.3662 11.8263L38.233 28.7186L36.227 30.7218L14.4812 8.93914C13.7558 8.21381 12.7642 7.85681 11.7272 7.92764C10.6873 8.01264 9.775 8.53397 9.15167 9.39814C8.17417 10.7553 8.42067 12.7641 9.724 14.0703L31.2828 35.666L29.2797 37.6691L9.4945 17.8783C7.57633 15.9601 4.28117 17.6091 3.94117 18.0795C2.96367 19.4366 3.21017 21.4455 4.5135 22.7516L24.3383 42.6105L22.3323 44.6108L8.75783 31.0023C8.0325 30.2798 7.02383 29.9143 6.00383 29.9908C4.964 30.0758 4.04883 30.5971 3.4255 31.4613C2.448 32.8185 2.6945 34.8273 4.00067 36.1335L25.8967 58.6245C29.9455 62.7923 35.275 65.1156 41.0833 65.1666C46.818 65.1666 52.5045 62.9453 56.5788 58.8993L58.8908 56.6043C62.8773 52.6433 65.1667 47.1466 65.1667 41.5253V24.0436Z" fill="#F5F5F5"/>
</g>
<defs>
<clipPath id="clip0_4_482">
<rect width="68" height="68" fill="white"/>
</clipPath>
</defs>
</svg>
