<svg width="45" height="45" viewBox="0 0 45 45" fill="none" xmlns="http://www.w3.org/2000/svg">
<g clip-path="url(#clip0_4_400)">
<path d="M32.8125 1.71936C30.7012 1.7522 28.6359 2.34159 26.8252 3.42799C25.0145 4.5144 23.5226 6.05936 22.5 7.90686C21.4775 6.05936 19.9855 4.5144 18.1749 3.42799C16.3642 2.34159 14.2989 1.7522 12.1875 1.71936C8.82181 1.86559 5.65074 3.33796 3.36714 5.8148C1.08353 8.29163 -0.126988 11.5716 4.38653e-05 14.9381C4.38653e-05 27.6412 20.5425 42.3131 21.4163 42.9356L22.5 43.7025L23.5838 42.9356C24.4575 42.3169 45 27.6412 45 14.9381C45.1271 11.5716 43.9166 8.29163 41.633 5.8148C39.3493 3.33796 36.1783 1.86559 32.8125 1.71936ZM22.5 39.0862C16.4007 34.53 3.75004 23.3362 3.75004 14.9381C3.62187 12.5657 4.43698 10.2389 6.0176 8.46505C7.59822 6.69124 9.81611 5.61439 12.1875 5.46936C14.559 5.61439 16.7769 6.69124 18.3575 8.46505C19.9381 10.2389 20.7532 12.5657 20.625 14.9381H24.375C24.2469 12.5657 25.062 10.2389 26.6426 8.46505C28.2232 6.69124 30.4411 5.61439 32.8125 5.46936C35.184 5.61439 37.4019 6.69124 38.9825 8.46505C40.5631 10.2389 41.3782 12.5657 41.25 14.9381C41.25 23.34 28.5994 34.53 22.5 39.0862Z" fill="white"/>
</g>
<defs>
<clipPath id="clip0_4_400">
<rect width="45" height="45" fill="white"/>
</clipPath>
</defs>
</svg>
