<svg width="14" height="14" viewBox="0 0 14 14" fill="none" xmlns="http://www.w3.org/2000/svg">
<path d="M11.375 13.9997H2.625C1.17775 13.9997 0 12.822 0 11.3747V5.577C0 4.70375 0.43225 3.89 1.15675 3.40175L5.53175 0.449496C6.4225 -0.153087 7.57633 -0.153087 8.46825 0.449496L12.8427 3.40175C13.5672 3.89058 13.9994 4.70375 13.9994 5.577V11.3747C13.9994 12.822 12.8222 13.9997 11.375 13.9997ZM7 0.580746C6.60217 0.580746 6.20492 0.697996 5.85842 0.932496L1.48283 3.88416C0.919333 4.2645 0.583333 4.89683 0.583333 5.57641V11.3742C0.583333 12.5 1.49917 13.4158 2.625 13.4158H11.375C12.5008 13.4158 13.4167 12.5 13.4167 11.3742V5.577C13.4167 4.89741 13.0807 4.26508 12.5172 3.88475L8.14217 0.932496C7.79508 0.698579 7.39783 0.580746 7 0.580746Z" fill="black"/>
</svg>
