<svg width="14" height="10" viewBox="0 0 14 10" fill="none" xmlns="http://www.w3.org/2000/svg">
<path d="M7.1 0.654999C4.1 0.654999 1.538 2.521 0.5 5.155C1.538 7.789 4.1 9.655 7.1 9.655C10.1 9.655 12.662 7.789 13.7 5.155C12.662 2.521 10.1 0.654999 7.1 0.654999ZM7.1 8.155C5.444 8.155 4.1 6.811 4.1 5.155C4.1 3.499 5.444 2.155 7.1 2.155C8.756 2.155 10.1 3.499 10.1 5.155C10.1 6.811 8.756 8.155 7.1 8.155ZM7.1 3.355C6.104 3.355 5.3 4.159 5.3 5.155C5.3 6.151 6.104 6.955 7.1 6.955C8.096 6.955 8.9 6.151 8.9 5.155C8.9 4.159 8.096 3.355 7.1 3.355Z" fill="#090909"/>
</svg>
