<?xml version="1.0" encoding="UTF-8"?>
<svg width="48px" height="30px" viewBox="0 0 48 30" version="1.1" xmlns="http://www.w3.org/2000/svg" xmlns:xlink="http://www.w3.org/1999/xlink">
    <!-- Generator: Sketch 51.3 (57544) - http://www.bohemiancoding.com/sketch -->
    <title>ico-dropdown</title>
    <desc>Created with Sketch.</desc>
    <defs></defs>
    <g id="Page-1" stroke="none" stroke-width="1" fill="none" fill-rule="evenodd">
        <g id="ico-dropdown" fill="#E2E8F0" fill-rule="nonzero">
            <path d="M18.0531169,15.0155459 L37.6231979,-3.71143406 C38.2356329,-4.29638406 38.5714289,-5.07002706 38.5714289,-5.89170206 C38.5714289,-6.71166206 38.2356329,-7.48530506 37.6231979,-8.07025506 C36.9968439,-8.67064406 36.1617059,-9.00000006 35.2708909,-9.00000006 C34.3783369,-9.00000006 33.5431979,-8.67064406 32.9168439,-8.07025506 L9.88093794,13.9725849 C9.59037994,14.2504789 9.42857094,14.6227199 9.42857094,15.0155459 C9.42857094,15.4083709 9.59037994,15.7806119 9.88093794,16.0585069 L32.9168439,38.1013469 C34.1643329,39.2986929 36.3652709,39.3004089 37.6231979,38.1013469 C38.2356329,37.5163969 38.5714289,36.7427529 38.5714289,35.9227939 C38.5714289,35.1011189 38.2356329,34.3274749 37.6231979,33.7425249 L18.0531169,15.0155459 Z" id="Shape" transform="translate(24.000000, 15.000000) scale(-1, 1) rotate(-90.000000) translate(-24.000000, -15.000000) "></path>
        </g>
    </g>
</svg>