<svg width="28" height="25" viewBox="0 0 28 25" fill="none" xmlns="http://www.w3.org/2000/svg">
<path d="M14 9.24999V14.25M14 18H14.0125M11.9537 2.48874L1.82123 19.4062C1.61235 19.768 1.50182 20.1781 1.50062 20.5958C1.49942 21.0135 1.60761 21.4242 1.81441 21.7872C2.02122 22.1501 2.31944 22.4525 2.67941 22.6644C3.03938 22.8763 3.44855 22.9903 3.86623 22.995H24.1337C24.5512 22.9902 24.9602 22.8762 25.32 22.6644C25.6798 22.4525 25.9779 22.1502 26.1847 21.7875C26.3914 21.4247 26.4997 21.0142 26.4986 20.5967C26.4976 20.1792 26.3873 19.7692 26.1787 19.4075L16.0462 2.48749C15.8331 2.13562 15.5327 1.84467 15.1743 1.64274C14.8159 1.44081 14.4114 1.33472 14 1.33472C13.5886 1.33472 13.1841 1.44081 12.8257 1.64274C12.4672 1.84467 12.1669 2.13562 11.9537 2.48749V2.48874Z" stroke="#E40303" stroke-width="2.66667" stroke-linecap="round" stroke-linejoin="round"/>
</svg>
