<svg width="8" height="10" viewBox="0 0 8 10" fill="none" xmlns="http://www.w3.org/2000/svg">
<path d="M1 8.655C1 9.205 1.45 9.655 2 9.655H6C6.55 9.655 7 9.205 7 8.655V3.655C7 3.105 6.55 2.655 6 2.655H2C1.45 2.655 1 3.105 1 3.655V8.655ZM7 1.155H5.75L5.395 0.799999C5.305 0.709999 5.175 0.654999 5.045 0.654999H2.955C2.825 0.654999 2.695 0.709999 2.605 0.799999L2.25 1.155H1C0.725 1.155 0.5 1.38 0.5 1.655C0.5 1.93 0.725 2.155 1 2.155H7C7.275 2.155 7.5 1.93 7.5 1.655C7.5 1.38 7.275 1.155 7 1.155Z" fill="#090909"/>
</svg>
