<svg xmlns="http://www.w3.org/2000/svg" xmlns:xlink="http://www.w3.org/1999/xlink" width="236" zoomAndPan="magnify" viewBox="0 0 177 177.000001" height="236" preserveAspectRatio="xMidYMid meet" version="1.0"><defs><clipPath id="0e3004e941"><path d="M 23 0 L 175.757812 0 L 175.757812 126 L 23 126 Z M 23 0 " clip-rule="nonzero"/></clipPath><clipPath id="45966e11e9"><path d="M 0.496094 49 L 153 49 L 153 175.261719 L 0.496094 175.261719 Z M 0.496094 49 " clip-rule="nonzero"/></clipPath><clipPath id="c0bbcdcf3d"><path d="M 23 0 L 175.757812 0 L 175.757812 126 L 23 126 Z M 23 0 " clip-rule="nonzero"/></clipPath><clipPath id="c990511983"><path d="M 0.496094 49 L 153 49 L 153 175.261719 L 0.496094 175.261719 Z M 0.496094 49 " clip-rule="nonzero"/></clipPath></defs><g clip-path="url(#0e3004e941)"><path fill="#c72642" d="M 168.808594 53.21875 C 154.984375 20.894531 123.332031 0 88.171875 0 C 69.058594 0 50.707031 6.195312 35.566406 17.535156 L 35.566406 5.84375 C 35.566406 2.628906 32.9375 0 29.722656 0 C 26.507812 0 23.878906 2.628906 23.878906 5.84375 L 23.878906 29.226562 C 23.878906 31.914062 25.691406 34.253906 28.289062 34.894531 L 51.671875 40.742188 C 52.136719 40.855469 52.636719 40.914062 53.101562 40.914062 C 55.734375 40.914062 58.101562 39.132812 58.773438 36.503906 C 59.5625 33.375 57.664062 30.191406 54.507812 29.402344 L 43.050781 26.535156 C 56.085938 16.921875 71.808594 11.691406 88.144531 11.691406 C 118.625 11.691406 146.039062 29.808594 158.023438 57.835938 C 162.085938 67.277344 164.128906 77.300781 164.128906 87.675781 C 164.128906 98.050781 162.085938 108.074219 158.023438 117.515625 C 156.738281 120.496094 158.109375 123.917969 161.089844 125.203125 C 161.851562 125.523438 162.640625 125.667969 163.398438 125.667969 C 165.679688 125.667969 167.8125 124.355469 168.777344 122.132812 C 173.453125 111.230469 175.820312 99.628906 175.820312 87.675781 C 175.820312 75.722656 173.453125 64.121094 168.777344 53.21875 Z M 168.808594 53.21875 " fill-opacity="1" fill-rule="nonzero"/></g><g clip-path="url(#45966e11e9)"><path fill="#c72642" d="M 148.058594 140.457031 L 124.675781 134.613281 C 121.550781 133.824219 118.363281 135.722656 117.574219 138.878906 C 116.785156 142.007812 118.683594 145.191406 121.839844 145.980469 L 133.296875 148.84375 C 120.261719 158.460938 104.539062 163.691406 88.203125 163.691406 C 57.722656 163.691406 30.308594 145.574219 18.324219 117.546875 C 14.261719 108.105469 12.214844 98.082031 12.214844 87.707031 C 12.214844 77.332031 14.261719 67.304688 18.324219 57.867188 C 19.609375 54.886719 18.238281 51.464844 15.257812 50.179688 C 12.273438 48.921875 8.855469 50.269531 7.570312 53.25 C 2.894531 64.148438 0.527344 75.753906 0.527344 87.707031 C 0.527344 99.660156 2.894531 111.261719 7.570312 122.164062 C 21.394531 154.484375 53.042969 175.382812 88.203125 175.382812 C 107.316406 175.382812 125.671875 169.1875 140.808594 157.847656 L 140.808594 169.539062 C 140.808594 172.753906 143.4375 175.382812 146.652344 175.382812 C 149.867188 175.382812 152.5 172.753906 152.5 169.539062 L 152.5 146.15625 C 152.5 143.46875 150.6875 141.128906 148.085938 140.488281 Z M 148.058594 140.457031 " fill-opacity="1" fill-rule="nonzero"/></g><path fill="#c72642" d="M 76.484375 116.902344 C 77.972656 116.902344 79.464844 116.316406 80.605469 115.179688 L 130.289062 65.496094 C 132.566406 63.214844 132.566406 59.503906 130.289062 57.222656 C 128.007812 54.945312 124.296875 54.945312 122.015625 57.222656 L 76.453125 102.785156 L 57.195312 83.527344 C 54.914062 81.246094 51.203125 81.246094 48.925781 83.527344 C 46.644531 85.804688 46.644531 89.519531 48.925781 91.796875 L 72.304688 115.175781 C 73.445312 116.316406 74.933594 116.902344 76.425781 116.902344 Z M 76.484375 116.902344 " fill-opacity="1" fill-rule="nonzero"/><g clip-path="url(#c0bbcdcf3d)"><path fill="#c72642" d="M 168.808594 53.21875 C 154.984375 20.894531 123.332031 0 88.171875 0 C 69.058594 0 50.707031 6.195312 35.566406 17.535156 L 35.566406 5.84375 C 35.566406 2.628906 32.9375 0 29.722656 0 C 26.507812 0 23.878906 2.628906 23.878906 5.84375 L 23.878906 29.226562 C 23.878906 31.914062 25.691406 34.253906 28.289062 34.894531 L 51.671875 40.742188 C 52.136719 40.855469 52.636719 40.914062 53.101562 40.914062 C 55.734375 40.914062 58.101562 39.132812 58.773438 36.503906 C 59.5625 33.375 57.664062 30.191406 54.507812 29.402344 L 43.050781 26.535156 C 56.085938 16.921875 71.808594 11.691406 88.144531 11.691406 C 118.625 11.691406 146.039062 29.808594 158.023438 57.835938 C 162.085938 67.277344 164.128906 77.300781 164.128906 87.675781 C 164.128906 98.050781 162.085938 108.074219 158.023438 117.515625 C 156.738281 120.496094 158.109375 123.917969 161.089844 125.203125 C 161.851562 125.523438 162.640625 125.667969 163.398438 125.667969 C 165.679688 125.667969 167.8125 124.355469 168.777344 122.132812 C 173.453125 111.230469 175.820312 99.628906 175.820312 87.675781 C 175.820312 75.722656 173.453125 64.121094 168.777344 53.21875 Z M 168.808594 53.21875 " fill-opacity="1" fill-rule="nonzero"/></g><g clip-path="url(#c990511983)"><path fill="#c72642" d="M 148.058594 140.457031 L 124.675781 134.613281 C 121.550781 133.824219 118.363281 135.722656 117.574219 138.878906 C 116.785156 142.007812 118.683594 145.191406 121.839844 145.980469 L 133.296875 148.84375 C 120.261719 158.460938 104.539062 163.691406 88.203125 163.691406 C 57.722656 163.691406 30.308594 145.574219 18.324219 117.546875 C 14.261719 108.105469 12.214844 98.082031 12.214844 87.707031 C 12.214844 77.332031 14.261719 67.304688 18.324219 57.867188 C 19.609375 54.886719 18.238281 51.464844 15.257812 50.179688 C 12.273438 48.921875 8.855469 50.269531 7.570312 53.25 C 2.894531 64.148438 0.527344 75.753906 0.527344 87.707031 C 0.527344 99.660156 2.894531 111.261719 7.570312 122.164062 C 21.394531 154.484375 53.042969 175.382812 88.203125 175.382812 C 107.316406 175.382812 125.671875 169.1875 140.808594 157.847656 L 140.808594 169.539062 C 140.808594 172.753906 143.4375 175.382812 146.652344 175.382812 C 149.867188 175.382812 152.5 172.753906 152.5 169.539062 L 152.5 146.15625 C 152.5 143.46875 150.6875 141.128906 148.085938 140.488281 Z M 148.058594 140.457031 " fill-opacity="1" fill-rule="nonzero"/></g><path fill="#c72642" d="M 76.484375 116.902344 C 77.972656 116.902344 79.464844 116.316406 80.605469 115.179688 L 130.289062 65.496094 C 132.566406 63.214844 132.566406 59.503906 130.289062 57.222656 C 128.007812 54.945312 124.296875 54.945312 122.015625 57.222656 L 76.453125 102.785156 L 57.195312 83.527344 C 54.914062 81.246094 51.203125 81.246094 48.925781 83.527344 C 46.644531 85.804688 46.644531 89.519531 48.925781 91.796875 L 72.304688 115.175781 C 73.445312 116.316406 74.933594 116.902344 76.425781 116.902344 Z M 76.484375 116.902344 " fill-opacity="1" fill-rule="nonzero"/></svg>