<svg width="8" height="10" viewBox="0 0 8 10" fill="none" xmlns="http://www.w3.org/2000/svg">
<path fill-rule="evenodd" clip-rule="evenodd" d="M0.95 8.755H7.25C7.36935 8.755 7.48381 8.80241 7.5682 8.8868C7.65259 8.97119 7.7 9.08565 7.7 9.205C7.7 9.32435 7.65259 9.43881 7.5682 9.5232C7.48381 9.60759 7.36935 9.655 7.25 9.655H0.95C0.830653 9.655 0.716193 9.60759 0.631802 9.5232C0.547411 9.43881 0.5 9.32435 0.5 9.205C0.5 9.08565 0.547411 8.97119 0.631802 8.8868C0.716193 8.80241 0.830653 8.755 0.95 8.755ZM0.5 6.505L5 2.005L6.35 3.355L1.85 7.855H0.5V6.505ZM5.45 1.555L6.35 0.654999L7.7 2.005L6.79955 2.90545L5.45 1.555Z" fill="#090909"/>
</svg>
