<svg width="63" height="62" viewBox="0 0 63 62" fill="none" xmlns="http://www.w3.org/2000/svg">
<path d="M31.5 6.29688C26.6142 6.29687 21.8381 7.74569 17.7757 10.4601C13.7133 13.1745 10.547 17.0326 8.6773 21.5465C6.80758 26.0604 6.31837 31.0274 7.27155 35.8193C8.22473 40.6113 10.5775 45.013 14.0323 48.4677C17.4871 51.9225 21.8887 54.2753 26.6807 55.2285C31.4726 56.1816 36.4396 55.6924 40.9535 53.8227C45.4674 51.953 49.3255 48.7867 52.0399 44.7243C54.7543 40.6619 56.2031 35.8858 56.2031 31C56.1954 24.4507 53.5903 18.1718 48.9593 13.5407C44.3282 8.90968 38.0493 6.30457 31.5 6.29688ZM31.5 52.7969C27.189 52.7969 22.9748 51.5185 19.3903 49.1234C15.8058 46.7284 13.0121 43.3242 11.3623 39.3413C9.71257 35.3584 9.28092 30.9758 10.122 26.7476C10.963 22.5195 13.0389 18.6356 16.0873 15.5873C19.1356 12.5389 23.0195 10.463 27.2477 9.62195C31.4758 8.78091 35.8585 9.21256 39.8413 10.8623C43.8242 12.5121 47.2284 15.3058 49.6234 18.8903C52.0185 22.4748 53.2969 26.689 53.2969 31C53.2905 36.7789 50.992 42.3193 46.9057 46.4056C42.8193 50.492 37.2789 52.7905 31.5 52.7969ZM42.6406 31C42.6406 31.3854 42.4875 31.755 42.215 32.0275C41.9425 32.3 41.5729 32.4531 41.1875 32.4531H32.9531V40.6875C32.9531 41.0729 32.8 41.4425 32.5275 41.715C32.255 41.9875 31.8854 42.1406 31.5 42.1406C31.1146 42.1406 30.745 41.9875 30.4725 41.715C30.2 41.4425 30.0469 41.0729 30.0469 40.6875V32.4531H21.8125C21.4271 32.4531 21.0575 32.3 20.785 32.0275C20.5125 31.755 20.3594 31.3854 20.3594 31C20.3594 30.6146 20.5125 30.245 20.785 29.9725C21.0575 29.7 21.4271 29.5469 21.8125 29.5469H30.0469V21.3125C30.0469 20.9271 30.2 20.5575 30.4725 20.285C30.745 20.0125 31.1146 19.8594 31.5 19.8594C31.8854 19.8594 32.255 20.0125 32.5275 20.285C32.8 20.5575 32.9531 20.9271 32.9531 21.3125V29.5469H41.1875C41.5729 29.5469 41.9425 29.7 42.215 29.9725C42.4875 30.245 42.6406 30.6146 42.6406 31Z" fill="#545454"/>
</svg>
