<svg width="14" height="14" viewBox="0 0 14 14" fill="none" xmlns="http://www.w3.org/2000/svg">
<g clip-path="url(#clip0_4_23)">
<g clip-path="url(#clip1_4_23)">
<path d="M7.00233 13.8034C6.79467 13.8034 6.58525 13.7299 6.41842 13.5817L4.14517 11.6667H2.04167C0.915833 11.6667 0 10.7508 0 9.625V2.04167C0 0.915833 0.915833 0 2.04167 0H11.9583C13.0842 0 14 0.915833 14 2.04167V9.625C14 10.7508 13.0842 11.6667 11.9583 11.6667H9.89858L7.574 13.5882C7.41358 13.7317 7.20883 13.8034 7.00292 13.8034H7.00233ZM2.04167 0.583333C1.23783 0.583333 0.583333 1.23783 0.583333 2.04167V9.625C0.583333 10.4288 1.23783 11.0833 2.04167 11.0833H4.25192C4.32075 11.0833 4.38725 11.1078 4.43975 11.1522L6.8005 13.1407C6.91658 13.244 7.08283 13.2446 7.19425 13.146L9.60808 11.1504C9.66058 11.1072 9.72592 11.0833 9.79358 11.0833H11.9583C12.7627 11.0833 13.4167 10.4288 13.4167 9.625V2.04167C13.4167 1.23783 12.7627 0.583333 11.9583 0.583333H2.04167Z" fill="black"/>
</g>
</g>
<defs>
<clipPath id="clip0_4_23">
<rect width="14" height="14" fill="white"/>
</clipPath>
<clipPath id="clip1_4_23">
<rect width="14" height="14" fill="white"/>
</clipPath>
</defs>
</svg>
