<svg width="17" height="16" viewBox="0 0 17 16" fill="none" xmlns="http://www.w3.org/2000/svg">
<path d="M1.83301 7.99988L8.26116 11.214C8.34862 11.2577 8.39234 11.2795 8.43821 11.2882C8.47883 11.2958 8.52052 11.2958 8.56114 11.2882C8.60701 11.2795 8.65073 11.2577 8.73819 11.214L15.1663 7.99988M1.83301 11.3332L8.26116 14.5473C8.34862 14.591 8.39234 14.6129 8.43821 14.6215C8.47883 14.6291 8.52052 14.6291 8.56114 14.6215C8.60701 14.6129 8.65073 14.591 8.73819 14.5473L15.1663 11.3332M1.83301 4.66655L8.26116 1.45247C8.34862 1.40874 8.39234 1.38688 8.43821 1.37827C8.47883 1.37065 8.52052 1.37065 8.56114 1.37827C8.60701 1.38688 8.65073 1.40874 8.73819 1.45247L15.1663 4.66655L8.73819 7.88062C8.65073 7.92435 8.60701 7.94621 8.56114 7.95482C8.52052 7.96244 8.47883 7.96244 8.43821 7.95482C8.39234 7.94621 8.34862 7.92435 8.26116 7.88062L1.83301 4.66655Z" stroke="#7F56D9" stroke-width="1.33333" stroke-linecap="round" stroke-linejoin="round"/>
</svg>
