<svg width="15" height="12" viewBox="0 0 15 12" fill="none" xmlns="http://www.w3.org/2000/svg">
<path d="M0.833008 7.66687L7.26116 10.8809C7.34862 10.9247 7.39234 10.9465 7.43821 10.9551C7.47883 10.9628 7.52052 10.9628 7.56114 10.9551C7.60701 10.9465 7.65073 10.9247 7.73819 10.8809L14.1663 7.66687M0.833008 4.33354L7.26116 1.11946C7.34862 1.07574 7.39234 1.05387 7.43821 1.04527C7.47883 1.03765 7.52052 1.03765 7.56114 1.04527C7.60701 1.05387 7.65073 1.07574 7.73819 1.11946L14.1663 4.33354L7.73819 7.54762C7.65073 7.59134 7.60701 7.61321 7.56114 7.62181C7.52052 7.62943 7.47883 7.62943 7.43821 7.62181C7.39234 7.61321 7.34862 7.59134 7.26116 7.54762L0.833008 4.33354Z" stroke="#7F56D9" stroke-width="1.33333" stroke-linecap="round" stroke-linejoin="round"/>
</svg>
