<svg width="528" height="505" viewBox="0 0 528 505" fill="none" xmlns="http://www.w3.org/2000/svg">
<path d="M408.344 67.8351C387.566 63.8205 366.096 65.3599 346.102 72.2978C326.109 79.2357 308.3 91.3264 294.475 107.349C288.239 87.1257 276.777 68.9059 261.247 54.5296C245.717 40.1533 226.668 30.1296 206.024 25.4707C172.707 19.9918 138.577 27.9215 111.088 47.5274C83.5997 67.1332 64.9879 96.8215 59.3191 130.106C33.2265 254.717 204.601 440.836 211.894 448.737L220.949 458.486L233.156 453.189C242.998 448.914 474.653 347.149 500.746 222.538C508.907 189.775 503.769 155.114 486.456 126.127C469.142 97.1395 441.06 76.1829 408.344 67.8351ZM230.431 413.202C179.958 355.98 78.8547 220.19 96.1047 137.809C99.7204 114.273 112.496 93.1226 131.644 78.9691C150.793 64.8156 174.761 58.8079 198.321 62.2562C221.286 68.5499 240.83 83.6689 252.692 104.316C264.554 124.962 267.77 149.462 261.64 172.471L298.425 180.173C302.041 156.638 314.816 135.487 333.965 121.334C353.113 107.18 377.081 101.172 400.642 104.621C423.606 110.914 443.151 126.033 455.013 146.68C466.874 167.327 470.09 191.826 463.96 214.835C446.702 297.253 299.622 381.036 230.431 413.202Z" fill="#F5F5F5"/>
</svg>
