<svg width="20" height="24" viewBox="0 0 20 24" fill="none" xmlns="http://www.w3.org/2000/svg">
<path d="M10 24C8.783 24 7.487 23.356 6.617 22.321C2.35 17.245 0 12.869 0 10C0 4.486 4.486 0 10 0C15.514 0 20 4.486 20 10C20 12.869 17.65 17.245 13.383 22.321C12.514 23.356 11.217 24 10 24ZM10 1C5.038 1 1 5.038 1 10C1 12.595 3.327 16.852 7.383 21.678C8.057 22.481 9.085 22.999 10 22.999C10.915 22.999 11.942 22.48 12.617 21.678C16.674 16.852 19 12.595 19 10C19 5.037 14.963 1 10 1Z" fill="#FE3678"/>
<path d="M10 14C7.794 14 6 12.206 6 10C6 7.794 7.794 6 10 6C12.206 6 14 7.794 14 10C14 12.206 12.206 14 10 14ZM10 7C8.346 7 7 8.346 7 10C7 11.654 8.346 13 10 13C11.654 13 13 11.654 13 10C13 8.346 11.654 7 10 7Z" fill="#FE313F"/>
</svg>
