<svg width="14" height="14" viewBox="0 0 14 14" fill="none" xmlns="http://www.w3.org/2000/svg">
<g clip-path="url(#clip0_4_40)">
<g clip-path="url(#clip1_4_40)">
<g clip-path="url(#clip2_4_40)">
<path d="M8.3125 1.89583C8.3125 1.74633 8.43383 1.625 8.58333 1.625H10.4792C11.5246 1.625 12.375 2.47542 12.375 3.52083V5.41667C12.375 5.56617 12.2537 5.6875 12.1042 5.6875C11.9547 5.6875 11.8333 5.56617 11.8333 5.41667V3.52083C11.8333 2.77442 11.2261 2.16667 10.4792 2.16667H8.58333C8.43383 2.16667 8.3125 2.04533 8.3125 1.89583ZM4.25 3.25C3.65254 3.25 3.16667 2.76413 3.16667 2.16667C3.16667 1.56921 3.65254 1.08333 4.25 1.08333C4.84746 1.08333 5.33333 1.56921 5.33333 2.16667C5.33333 2.76413 4.84746 3.25 4.25 3.25ZM4.25 2.70833C4.549 2.70833 4.79167 2.46513 4.79167 2.16667C4.79167 1.86821 4.549 1.625 4.25 1.625C3.951 1.625 3.70833 1.86821 3.70833 2.16667C3.70833 2.46513 3.951 2.70833 4.25 2.70833ZM11.8333 8.66667C11.8333 9.26413 11.3475 9.75 10.75 9.75C10.1525 9.75 9.66667 9.26413 9.66667 8.66667C9.66667 8.06921 10.1525 7.58333 10.75 7.58333C11.3475 7.58333 11.8333 8.06921 11.8333 8.66667ZM11.2917 8.66667C11.2917 8.36821 11.049 8.125 10.75 8.125C10.451 8.125 10.2083 8.36821 10.2083 8.66667C10.2083 8.96513 10.451 9.20833 10.75 9.20833C11.049 9.20833 11.2917 8.96513 11.2917 8.66667ZM14 9.75C14 11.5424 12.5424 13 10.75 13C8.95763 13 7.5 11.5424 7.5 9.75C7.5 7.95763 8.95763 6.5 10.75 6.5C12.5424 6.5 14 7.95763 14 9.75ZM11.8333 11.9167C11.8333 11.3192 11.3475 10.8333 10.75 10.8333C10.1525 10.8333 9.66667 11.3192 9.66667 11.9167V12.2276C9.99925 12.3738 10.3643 12.4583 10.75 12.4583C11.1357 12.4583 11.5008 12.3738 11.8333 12.2276V11.9167ZM13.4583 9.75C13.4583 8.25663 12.2434 7.04167 10.75 7.04167C9.25663 7.04167 8.04167 8.25663 8.04167 9.75C8.04167 10.6318 8.47175 11.4091 9.12608 11.9037C9.13313 11.0137 9.85788 10.2917 10.75 10.2917C11.6421 10.2917 12.3669 11.0137 12.3739 11.9037C13.0282 11.4086 13.4583 10.6318 13.4583 9.75ZM6.41667 10.8333H4.52083C3.77388 10.8333 3.16667 10.2256 3.16667 9.47917V7.58333C3.16667 7.43383 3.04533 7.3125 2.89583 7.3125C2.74633 7.3125 2.625 7.43383 2.625 7.58333V9.47917C2.625 10.5246 3.47542 11.375 4.52083 11.375H6.41667C6.56617 11.375 6.6875 11.2537 6.6875 11.1042C6.6875 10.9547 6.56617 10.8333 6.41667 10.8333ZM4.25 6.5C2.45763 6.5 1 5.04238 1 3.25C1 1.45763 2.45763 0 4.25 0C6.04238 0 7.5 1.45763 7.5 3.25C7.5 5.04238 6.04238 6.5 4.25 6.5ZM4.25 3.79167C5.14158 3.79167 5.86688 4.51371 5.87392 5.40367C6.52825 4.90858 6.95833 4.13183 6.95833 3.25C6.95833 1.75663 5.74338 0.541667 4.25 0.541667C2.75663 0.541667 1.54167 1.75663 1.54167 3.25C1.54167 4.13183 1.97175 4.90913 2.62608 5.40367C2.63313 4.51371 3.35788 3.79167 4.25 3.79167ZM3.16667 5.72758C3.49925 5.87383 3.86433 5.95833 4.25 5.95833C4.63567 5.95833 5.00075 5.87383 5.33333 5.72758C5.33333 5.71458 5.33333 5.41667 5.33333 5.41667C5.33333 4.81921 4.84746 4.33333 4.25 4.33333C3.65254 4.33333 3.16667 4.81921 3.16667 5.41667C3.16667 5.41667 3.16667 5.71404 3.16667 5.72758Z" fill="black"/>
</g>
</g>
</g>
<defs>
<clipPath id="clip0_4_40">
<rect width="14" height="14" fill="white"/>
</clipPath>
<clipPath id="clip1_4_40">
<rect width="14" height="14" fill="white"/>
</clipPath>
<clipPath id="clip2_4_40">
<rect width="13" height="13" fill="white" transform="translate(1)"/>
</clipPath>
</defs>
</svg>
