<svg width="14" height="14" viewBox="0 0 14 14" fill="none" xmlns="http://www.w3.org/2000/svg">
<g clip-path="url(#clip0_4_49)">
<g clip-path="url(#clip1_4_49)">
<g clip-path="url(#clip2_4_49)">
<g clip-path="url(#clip3_4_49)">
<path d="M14.9148 13.5018L10.6594 9.24642C11.5443 8.26408 12.0839 6.96442 12.0839 5.54167C12.0833 2.48617 9.59717 0 6.54167 0C3.48617 0 1 2.48617 1 5.54167C1 8.59717 3.48617 11.0833 6.54167 11.0833C7.965 11.0833 9.26408 10.5438 10.2464 9.65883L14.5018 13.9143C14.559 13.9714 14.6337 13.9994 14.7083 13.9994C14.783 13.9994 14.8577 13.9708 14.9148 13.9143C15.0286 13.8005 15.0286 13.6156 14.9148 13.5018ZM1.58333 5.54167C1.58333 2.80758 3.80758 0.583333 6.54167 0.583333C9.27575 0.583333 11.5 2.80758 11.5 5.54167C11.5 8.27575 9.27575 10.5 6.54167 10.5C3.80758 10.5 1.58333 8.27575 1.58333 5.54167ZM7.70833 3.5C7.22067 3.5 6.803 3.71233 6.54167 4.05358C6.28033 3.71233 5.86267 3.5 5.375 3.5C4.57058 3.5 3.91667 4.19592 3.91667 5.05167C3.91667 6.16058 5.24608 7.5145 5.949 8.07508C6.124 8.2145 6.33225 8.28392 6.54167 8.28392C6.75108 8.28392 6.95933 8.2145 7.13375 8.07508C7.83725 7.5145 9.16667 6.16117 9.16667 5.05167C9.16667 4.19592 8.51275 3.5 7.70833 3.5ZM6.76975 7.6195C6.63617 7.72683 6.44775 7.72683 6.31358 7.6195C5.5605 7.01925 4.50058 5.82575 4.50058 5.05225C4.50058 4.5185 4.89317 4.08392 5.37558 4.08392C5.89067 4.08392 6.25058 4.43508 6.25058 4.93792C6.25058 5.09892 6.38125 5.22958 6.54225 5.22958C6.70325 5.22958 6.83392 5.09892 6.83392 4.93792C6.83392 4.43508 7.19383 4.08392 7.70892 4.08392C8.19133 4.08392 8.58392 4.5185 8.58392 5.05225C8.58392 5.82575 7.52342 7.01925 6.76975 7.6195Z" fill="#FE3678"/>
</g>
</g>
</g>
</g>
<defs>
<clipPath id="clip0_4_49">
<rect width="14" height="14" fill="white"/>
</clipPath>
<clipPath id="clip1_4_49">
<rect width="14" height="14" fill="white"/>
</clipPath>
<clipPath id="clip2_4_49">
<rect width="14" height="14" fill="white" transform="translate(0 -1)"/>
</clipPath>
<clipPath id="clip3_4_49">
<rect width="14" height="14" fill="white" transform="translate(1)"/>
</clipPath>
</defs>
</svg>
