<svg width="24" height="22" viewBox="0 0 24 22" fill="none" xmlns="http://www.w3.org/2000/svg">
<path d="M24 7C24 8.464 23.497 10.063 22.506 11.753C22.412 11.912 22.245 12 22.074 12C21.987 12 21.9 11.978 21.821 11.931C21.583 11.791 21.503 11.485 21.642 11.247C22.542 9.712 22.999 8.284 22.999 7C22.999 3.86 20.378 1 17.499 1C15.145 1 13.94 1.927 12.816 2.959L8.525 7.207C7.936 7.796 7.826 8.708 8.272 9.327C8.555 9.72 8.971 9.957 9.444 9.995C9.91 10.03 10.368 9.865 10.698 9.535L15.148 5.145C15.344 4.951 15.662 4.953 15.855 5.15C16.049 5.346 16.047 5.663 15.851 5.857L14.415 7.274L19.732 11.941C20.696 12.786 20.938 14.198 20.295 15.226C19.899 15.86 19.251 16.286 18.52 16.393C18.285 16.428 18.048 16.43 17.816 16.397C17.946 17.013 17.853 17.663 17.514 18.206C17.117 18.841 16.469 19.266 15.738 19.373C15.391 19.424 15.044 19.402 14.716 19.312C14.756 19.826 14.645 20.346 14.364 20.793C13.968 21.427 13.32 21.853 12.589 21.96C12.466 21.978 12.344 21.987 12.222 21.987C11.615 21.987 11.025 21.768 10.563 21.362L7.322 18.454C2.395 14.001 0 10.255 0 7C0 3.271 3.038 0 6.5 0C7.66 0 8.819 0.376 9.854 1.088C10.082 1.245 10.139 1.556 9.983 1.783C9.827 2.012 9.516 2.069 9.288 1.912C8.421 1.315 7.457 1 6.501 1C3.623 1 1.001 3.86 1.001 7C1.001 9.915 3.353 13.519 7.992 17.711L11.227 20.614C11.558 20.905 12.002 21.034 12.445 20.971C12.892 20.906 13.274 20.654 13.518 20.263C13.904 19.647 13.743 18.785 13.143 18.259L9.807 15.088C9.607 14.898 9.599 14.582 9.789 14.382C9.978 14.181 10.295 14.173 10.495 14.362L14.386 18.035C14.707 18.317 15.152 18.451 15.594 18.384C16.041 18.319 16.423 18.067 16.668 17.676C17.053 17.061 16.892 16.199 16.292 15.673L12.577 12.31C12.373 12.125 12.356 11.81 12.54 11.605C12.723 11.399 13.038 11.382 13.245 11.565L17.156 15.046C17.489 15.337 17.931 15.468 18.376 15.404C18.823 15.338 19.204 15.087 19.449 14.696C19.834 14.08 19.673 13.218 19.073 12.693L13.702 7.978L11.404 10.245C10.868 10.781 10.124 11.05 9.365 10.993C8.606 10.931 7.912 10.538 7.462 9.912C6.733 8.9 6.887 7.433 7.821 6.499L12.127 2.237C13.365 1.099 14.788 0.00100005 17.5 0.00100005C20.963 0.00100005 24 3.272 24 7.001V7Z" fill="#FE3678"/>
</svg>
