<svg width="455" height="455" viewBox="0 0 455 455" fill="none" xmlns="http://www.w3.org/2000/svg">
<path d="M292.8 177.214L253.918 224.66L301.364 263.542C309.455 270.172 310.635 282.069 304.005 290.16C300.698 294.194 296.062 296.517 291.243 296.995C286.424 297.473 281.422 296.107 277.387 292.8L229.941 253.918L191.059 301.364C187.753 305.399 183.117 307.722 178.298 308.2C173.479 308.678 168.477 307.311 164.442 304.005C156.351 297.375 155.171 285.478 161.801 277.387L200.683 229.941L153.237 191.059C145.147 184.429 143.966 172.532 150.596 164.442C157.227 156.351 169.124 155.171 177.214 161.801L224.66 200.683L263.542 153.237C270.172 145.147 282.069 143.966 290.16 150.596C298.25 157.227 299.43 169.124 292.8 177.214ZM453.192 204.891C465.549 329.451 374.27 440.835 249.71 453.192C125.15 465.549 13.7666 374.27 1.40958 249.71C-10.9474 125.15 80.331 13.7666 204.891 1.40957C329.451 -10.9474 440.835 80.331 453.192 204.891ZM415.543 208.626C405.246 104.829 312.423 28.7609 208.626 39.0581C104.829 49.3553 28.7609 142.178 39.0581 245.975C49.3553 349.772 142.178 425.841 245.975 415.543C349.772 405.246 425.841 312.423 415.543 208.626Z" fill="#F6F6F6"/>
</svg>
