<svg width="20" height="20" viewBox="0 0 20 20" fill="none" xmlns="http://www.w3.org/2000/svg">
<path d="M7.49984 10.0003L9.1665 11.667L12.9165 7.91699M6.11131 3.18257C6.78117 3.12912 7.4171 2.86571 7.92856 2.42984C9.12211 1.41271 10.8776 1.41271 12.0711 2.42984C12.5826 2.86571 13.2185 3.12912 13.8884 3.18257C15.4516 3.30731 16.6928 4.54861 16.8176 6.1118C16.871 6.78166 17.1345 7.41759 17.5703 7.92905C18.5875 9.1226 18.5875 10.8781 17.5703 12.0716C17.1345 12.5831 16.871 13.219 16.8176 13.8889C16.6928 15.452 15.4516 16.6933 13.8884 16.8181C13.2185 16.8715 12.5826 17.1349 12.0711 17.5708C10.8776 18.5879 9.12211 18.5879 7.92856 17.5708C7.4171 17.1349 6.78117 16.8715 6.11131 16.8181C4.54812 16.6933 3.30683 15.452 3.18208 13.8889C3.12863 13.219 2.86522 12.5831 2.42935 12.0716C1.41222 10.8781 1.41222 9.1226 2.42935 7.92905C2.86522 7.41759 3.12863 6.78166 3.18208 6.1118C3.30683 4.54861 4.54812 3.30731 6.11131 3.18257Z" stroke="#039855" stroke-width="1.66667" stroke-linecap="round" stroke-linejoin="round"/>
</svg>
