<svg width="45" height="45" viewBox="0 0 45 45" fill="none" xmlns="http://www.w3.org/2000/svg">
<g clip-path="url(#clip0_4_416)">
<path d="M29.4506 18.2006L25.1512 22.5L29.4506 26.7994C30.1838 27.5325 30.1838 28.7175 29.4506 29.4506C29.085 29.8162 28.605 30 28.125 30C27.645 30 27.165 29.8162 26.7994 29.4506L22.5 25.1512L18.2006 29.4506C17.835 29.8162 17.355 30 16.875 30C16.395 30 15.915 29.8162 15.5494 29.4506C14.8163 28.7175 14.8163 27.5325 15.5494 26.7994L19.8488 22.5L15.5494 18.2006C14.8163 17.4675 14.8163 16.2825 15.5494 15.5494C16.2825 14.8163 17.4675 14.8163 18.2006 15.5494L22.5 19.8488L26.7994 15.5494C27.5325 14.8163 28.7175 14.8163 29.4506 15.5494C30.1838 16.2825 30.1838 17.4675 29.4506 18.2006ZM45 22.5C45 34.9069 34.9069 45 22.5 45C10.0931 45 0 34.9069 0 22.5C0 10.0931 10.0931 0 22.5 0C34.9069 0 45 10.0931 45 22.5ZM41.25 22.5C41.25 12.1613 32.8387 3.75 22.5 3.75C12.1613 3.75 3.75 12.1613 3.75 22.5C3.75 32.8387 12.1613 41.25 22.5 41.25C32.8387 41.25 41.25 32.8387 41.25 22.5Z" fill="white"/>
</g>
<defs>
<clipPath id="clip0_4_416">
<rect width="45" height="45" fill="white"/>
</clipPath>
</defs>
</svg>
